<svg xmlns="http://www.w3.org/2000/svg" width="757.999" height="1055.376" viewBox="0 0 757.999 1055.376"><defs><style>.a{fill:#c9c9c9;fill-rule:evenodd;}</style></defs><g transform="translate(159.818 6.829)"><path class="a" d="M-8.478-2.753c-2.607-.978-5.206-1.965-7.833-2.881a13.554,13.554,0,0,1-1.737-1c.268.25-1.9-.379-1.613-.142,3.346,1.9,9.486,3.648,13.592,5.4C4.594,3.707-6.662-1.354-2.676,1-5.67-.391-5.742-.525-9.928-2.4-3.529.954,4.871,4.338,9.044,6.33A33.222,33.222,0,0,0,5.335,4.291c1.47.635,2.911,1.328,4.37,1.988Q8.119,5.3,6.5,4.378q-1.82-1-3.67-1.939C.1,1.05-3.379-.571-8.478-2.753M11.3,7.449c-.45-.265-1.228-.641-2.254-1.12.508.281,1.172.619,2.254,1.12M7.348,4.76c1.726.9,3.471,1.766,5.179,2.7q-.95-.651-1.921-1.27A27.278,27.278,0,0,0,7.347,4.759M133.82,179.307c-.237-.522-1.561-2.219-4.617-5.578a20.8,20.8,0,0,1,2.675,2.646l1.965,2.118c.668.667,1.311,1.27,1.818,1.734-4.032-4.4.309-.147-.541-1.423-4.444-4.934-6.757-6.855-11.106-12.52.288.23.312.059-.189-.723-1.42-1.607-2.862-3.664-4.488-5.816l-2.477-3.344-2.354-3.588-2.334-3.593c-.767-1.184-1.4-2.421-2.066-3.578l-1.856-3.359c-.581-1.067-1.138-2.062-1.546-3.027l-2.485-5.164-1.2-2.44c-.353-.826-.707-1.649-1.063-2.477-.718-1.656-1.448-3.333-2.217-5.1-.192-.443-.4-.889-.584-1.349q-.258-.7-.524-1.422l-1.106-3c-.584-1.726-1.221-3.441-1.772-5.186q-.749-2.644-1.5-5.3l-.757-2.659-.376-1.333-.3-1.354q-.6-2.709-1.215-5.43t-1.222-5.448l-.615-2.726-.773-2.692c-.271-.895-.488-1.807-.806-2.69l-.931-2.653c-.577-1.791-1.373-3.5-2.077-5.251A98.752,98.752,0,0,0,73.727,55.867,134.5,134.5,0,0,0,58.3,38.5c-1.177-.9-2.438-1.711-3.651-2.563-.9-1.254-5.661-4.778-4.74-4.5,1.247,1.146,2.573,2.116,4.107,3.464-1.162-1.207-2.65-2.462-4.243-3.833-1.625-1.333-3.418-2.711-5.264-4.085-1.879-1.331-3.759-2.73-5.653-3.981l-2.746-1.887-2.6-1.748c.716.585,1.546,1.7-.52.456.424-.077-1.536-1.41-3.878-2.837-2.314-1.472-5-3.051-5.837-3.953-3.419-2.1-3.58-1.965-3.743-1.911-.178.077-.377.1-4.021-1.927-.929-.129,6.932,4,8.061,5.045-2.371-1.1-6.507-3.816-6.347-3.306,5.82,3.28,14.107,8,22.727,13.848,4.279,2.964,8.657,6.181,12.832,9.616A147.636,147.636,0,0,1,64.448,45.189L62.7,43.879A102.859,102.859,0,0,1,74.722,58.051c.907,1.368,1.845,2.7,2.667,4.042.8,1.359,1.587,2.675,2.305,3.939.656,1.3,1.277,2.533,1.851,3.674s.975,2.245,1.376,3.2c-.136-.475.2.155.778,1.341s1.262,2.99,2.023,4.773c.7,1.808,1.316,3.659,1.841,4.928.465,1.288.764,2.026.84,1.6.282,1.292.484,2.128.737,3.091s.448,2.088.836,3.919l.453.951c1.169,5.255.629,4.492,2,10.531-.56-4.027.442.365,1.27,2,.409,1.726.834,3.521,1.264,5.341.23.907.413,1.837.685,2.738l.822,2.7,1.609,5.27c.241.859.548,1.675.845,2.47l.852,2.313a20.929,20.929,0,0,0-.926-3.125c1.559,4.01,1.554,3.208,2.093,4.217,1.608,3.8,1.072,3.578.808,3.482a88.072,88.072,0,0,0,4.172,8.063c.592,1.109,1.266,2.1,1.9,3.167q1.016,1.688,1.9,3.448l-.706-1.919c.988,1.689,1.868,3.348,2.8,4.942l2.9,4.7,1.468,2.383c.484.812,1.071,1.568,1.62,2.374q1.768,2.512,3.59,4.985c1.036,1.824-.075.442-1.729-1.749s-3.891-5.164-4.876-6.665c.811,1.576,3.012,4.592,3.569,5.636l2.011,2.484,1.145,1.421,1.274,1.431,5.035,5.67c-1.568-1.534-.675-.131,1.014,1.812,1.668,1.957,3.965,4.592,4.975,5.685m-15.454-18.5q-.786-.969-1.595-1.919c.515.671,1,1.291,1.718,2.331.117.063.048-.109-.123-.413m15.454,18.5c.008.033.092.14.089.163.622.592.431.38-.089-.163" transform="translate(-29.57 0)"/><path class="a" d="M134.52,161.77c.136.3.32.694.468,1.019.215.443.386.828.617,1.262-.381-.75-.722-1.521-1.085-2.282m-4.174-5.153c-.34-.768-.645-1.727-1.03-2.776l-1.251-3.443a9.934,9.934,0,0,0,.436,1.553c.148.428.353.986.644,1.744.147.379.313.808.5,1.3s.406,1.034.7,1.626M115.2,106.3c-.579-1.483-.371-.589-.838-1.61,1.065,3.1,1.531,4.111.838,1.61m37.133,85.68,2.1,2.543,1.056,1.266L156.606,197l1.674,1.754c-1.016-1.107-2.055-2.195-3.053-3.319l-2.9-3.46Zm109.917,71.692q-2.184-.961-4.41-1.819l-2.467-.943-2.553-1.029-5.249-2.081c-1.745-.7-3.438-1.475-5.063-2.191-3-1.247-4.623-1.865-5.519-2.209a2.75,2.75,0,0,0-1.3-.3c-.378.032-.679.1-6.283-2.548.75.08,1.512.129,2.266.195-1.408-.635-2.85-1.382-4.346-2.15L222.7,246.23c-1.584-.8-3.139-1.718-4.734-2.583-1.585-.885-3.2-1.742-4.765-2.643l-4.62-2.722c-1.516-.891-3.019-1.728-4.413-2.624q-2.023-1.256-4.066-2.48c-1.3-.776-2.537-1.479-3.643-2.189-.712-.628-2.411-1.988.271-.219a29.517,29.517,0,0,0-5.71-3.394c-1.324-.593-2.814-1.561-7.108-5.044,8.463,5.945-2.375-2.443.174-1.093l1.31.944-2.159-1.641c-.72-.589-1.456-1.191-2.2-1.8-1.486-1.217-3-2.455-4.455-3.645-2.851-2.451-5.393-4.808-7.079-6.374-.142.008.468.753.548.974.039.11-.055.089-.443-.222q-.42-.342-.823-.7c-.352-.331-.783-.768-1.329-1.318,1.724,1.817.858,1.267.555,1.254,4.854,4.244,7.281,6.752,10.462,9.013,2.561,2.523-1.9-1.5.664,1.027,1.381,1.034,2.706,2.133,4.125,3.111,2.947,2.37-3.262-2.192,1.373,1.481a33.465,33.465,0,0,1,2.951,2.015c.749.552,1.6,1.176,2.492,1.833.912.634,1.865,1.308,2.8,1.988l-1.141-.7c2.94,1.978,6.941,4.968,5.8,3.616l3.236,2.655-.436-.649c2.01,1.343,3.663,2.543,5.229,3.617l4.575,3.047,2.4,1.562c.842.533,1.758,1.04,2.735,1.6s2.037,1.141,3.2,1.767,2.406,1.319,3.831,1.97c-2.633-1.453-.114-.344,1.34.334-2.283-1.258-3.7-2-5.116-2.691s-2.817-1.328-4.99-2.514c-.488-.618,7.015,3.14,1.875.071q2.011,1.262,4.071,2.443.985.564,1.913,1.1l1.82.959a28.949,28.949,0,0,1,5.289,3.277c3.538,1.774,6.064,2.824,8.568,3.952,2.525,1.086,5.092,2.107,8.742,3.8l-.264.008a21.8,21.8,0,0,1,4.29,1.595,53.213,53.213,0,0,0,7.443,2.74q-1.98-.764-3.926-1.614a4.262,4.262,0,0,1,1.517.4l3.37,1.18c-.329-.038-.329-.038.514.376a37.769,37.769,0,0,1,5.218,1.526c2.406.731,4.834,1.5,5.389,1.632-1.793-.641-3.822-1.243-5.923-1.889-2.088-.683-4.26-1.374-6.369-2.1,2.2.581,1.661.057,5.173,1.412m-72.7-36.541,2.192,1.352a23.63,23.63,0,0,0-2.192-1.352m106.828,47.395c4.892,1.292-1.4.008,3.164,1.244,2.536.44,1.124-.01-.293-.476s-2.83-.995-.348-.584c1.483.447,3.472.852,5.34,1.2l2.633.481c.8.126,1.492.237,2,.337-2.269-.234-1.074.495-.2.768,1.939.226,6.164,1.389,9.46,1.931-8-1.7,6.8,1-.411-.589a29.154,29.154,0,0,1,4.693.487c2.352.355,5.028.711,6.546,1.063a27.151,27.151,0,0,1-4.8-.544c-1.718.137,5.1.975,6.2,1.5,3.9.294,12.018,1.1,18.278,1.783,3.124.4,5.8.7,7.263.825s1.715.024.013-.513c-2.611-.6-4.9-.716-7.756-1.126,7.977,1.409-.008.454-.707.526-3.39-.568-9.306-1.034-7.921-1.173l5.468.36-14.061-1.875-7.6-1.163-7.817-1.361q-15.622-2.905-30.959-7.117c2.8.781,5.584,1.588,8.407,2.27a24.25,24.25,0,0,1-3.3-.6l-4.839-1.2,3.954,1.7c-2.41-.715-4.754-1.277-4.491-1.417-3.026-.588-1.716-.07.008.612-1.576-.417-2.826-.741-3.876-1.059l-2.73-.843c-1.639-.5-3.109-.909-5.573-1.467,10.25,3.617,8.861,2.391,20.766,5.948Zm-22.94-6.078,2.577.485-3.877-1.043Zm4.318,0c.092.16-1.452-.252-1.361-.092,4.8,1.557,4.279,1.213,1.361.092m59.236,13.792,6.473.71-4.19-.639a8.688,8.688,0,0,1-2.283-.071m45.094,7.244c-2.185-.623-4.053-1.172-5.8-1.619l-5.006-1.2c-1.636-.428-3.337-.735-5.23-1.18l-3.023-.7-3.49-.738c-5.011-.541,2.167,1.119-.016,1.064a35.159,35.159,0,0,0,4.742.663,33.514,33.514,0,0,1,4.9.645c1.812.77,7.494,1.729,12.279,3.3-.549-.3-.507-.449.638-.24" transform="translate(-57.856 -23.532)"/><path class="a" d="M480.833,352.177c1.819.97,3.554,2.094,5.244,3.091a39.711,39.711,0,0,1,4.477,3.088,8.061,8.061,0,0,1-1.7-.955q-.679-.449-1.343-.92l-1.528-.995a6.146,6.146,0,0,0,1.124.937c.469.323,1,.708,1.619,1.12s1.309.881,2.059,1.419q.565.4,1.171.862c.4.31.79.675,1.2,1.048-.268-.28-1.472-1.344-.44-.645,2.128,1.757,3.547,2.813,4.552,3.673s1.685,1.419,2.444,2.047a30.816,30.816,0,0,1,2.822,2.559l2.23,2.251q.736.734,1.4,1.534l1.617,1.876c1.507,1.437,2.761,3.069,2.78,2.6q1.245,1.716,2.459,3.454c.5.77.772,1.259,1.091,1.778s.663,1.083,1.267,2.025c.3.474.683,1.025,1.112,1.748s.933,1.594,1.55,2.649c-.047-.4-1.428-3.359-1.081-3.508,3.587,5.98,5.255,9.107,6.681,11.661a69.85,69.85,0,0,1,4.077,8.751c-.436-.9-.981-1.947-1.952-4.142,0,1.264,3.221,6.712,4.86,11.38l-.608-.286.716,1.7.739,1.961,1.631,4.379q.767,2.324,1.463,4.67l.652,2.279c.185.75.345,1.482.492,2.182l-.559-1.188c.413,1.391.834,2.812,1.262,4.25l.624,2.179.555,2.219,1.1,4.475c.353,1.5.639,3,.956,4.493s.632,2.963.9,4.423l.766,4.3c.531,2.8.929,5.475,1.331,7.917.158,1.775.352,3.544.454,5.325,1,6.754.632,3.386.245-.448-.42-3.828-.968-8.111.111-3.212a4.3,4.3,0,0,0-.043,1.884c.087.851.266,1.914.488,3.172a90.323,90.323,0,0,1,1.329,9.7c.1,3.692-1.093-7.815-1-3.721.63,1.658.607,4.114,1.213,8.211-.523-.84,1.067,8.622.279,6.13.9,4.8,1.857,9.58,2.937,14.333a77,77,0,0,0,1.655,9.575c-1.509-7.743.995,2-.489-6.7-1.229-6.309-2.6-14.788-3.732-23.707-1.063-8.921-2.133-18.267-3.32-26.226a32.449,32.449,0,0,1-1.314-6.011,44.6,44.6,0,0,0-1.494-6.586c.1-.4.011-1.621.109-2.041-2.472-10.086.278,2.437-.518.022-1.089-4.406-1.617-8.047-1.318-7.69-1.9-7.193-.359-.759-1.638-4.339-.225-1.614-.428-3.237-.734-4.838q-.659-2.078-1.346-4.234c-.44-1.444-1.014-2.87-1.527-4.341-1.008-2.95-2.268-5.906-3.5-8.945a150.9,150.9,0,0,0-9.3-18.083,116.852,116.852,0,0,0-12.476-16.78,115.492,115.492,0,0,0-14.909-13.943l1.33,1.556c-.578-.473-1.134-.952-1.708-1.384l-1.722-1.229c-1.138-.789-2.219-1.576-3.318-2.268l-3.266-1.952-1.587-.934-1.609-.846-3.169-1.692c-1.05-.568-2.144-1.06-3.216-1.621-1.084-.539-2.154-1.145-3.274-1.7q-1.737-.849-3.44-1.764l-1.711-.574-1.738-.5c1.9.536-1.716-1.287,1.3-.4-1.539-.529-3.1-1.14-4.683-1.758s-3.215-1.125-4.824-1.625c1.859.717,3.748,1.347,5.566,2.162q-.756-.228-1.5-.479c-.505-.153-1.01-.308-1.507-.46q-1.418-.447-2.814-.959c-.868-.315-1.643-.636-2.29-.893a14.74,14.74,0,0,1-1.475-.637c-4.338-1.078-3.105-.54-.579.371l2.073.736,2.135.845c1.364.546,2.526,1.023,2.963,1.258,1.518.389,2.791.895,3.95,1.29,1.15.413,2.155.8,3.062,1.165,1.784.8,3.164,1.531,4.529,2.252,1.378.693,2.661,1.535,4.317,2.436.82.467,1.748.921,2.765,1.5s2.158,1.215,3.477,1.915c6.462,3.617-.462-.754,0-.647" transform="translate(-128.529 -72.863)"/><path class="a" d="M466.555,344.283a17.781,17.781,0,0,0-1.726-.616c.614.2,1.17.426,1.725.616M549.47,513.428l.776,3.419c.351,1.139-.123-.7-.776-3.419m-98.2-174.423s0,0,.025.013l.088.021Zm-6.011-.751c1.081.26,2.138.608,3.2.92l-.507-.335c-.9-.207-1.789-.425-2.7-.585M559.957,547.1l.194-.063c-.195-.241-.316-.331-.194.063m69.911,63.87-1.728-1.155c.531.392,1.146.789,1.728,1.155" transform="translate(-127.682 -72.818)"/><path class="a" d="M714.188,832.7c-4.283,4.515-10.261,10.249-13.477,13.555l.2-.449c-2.369,2.318-10.347,9.622-4.844,5.331l1.157-1.243c5.715-5.459,4.523-3.556,9.168-7.636,5.379-5.166,7.879-8.725,12.572-13.353,1.971-2.11,1.8-1.658,1.335-.922,4.574-4.813,5.8-7.192,8.66-10.71,1.156-.222,4.377-4.2,7.758-9.276,3.412-5.067,6.862-11.236,9.476-15.42,1.319-2.821,2.83-6.136,4.114-9.772a57.8,57.8,0,0,0,2.827-11.529c-.1,1.053-.059,1.124.054.66a23.693,23.693,0,0,0,.451-2.541c.351-2.157.487-4.655.655-3.767a7.9,7.9,0,0,1-.129-1.649c-.035-.784-.025-1.779-.023-2.914a67.785,67.785,0,0,0-.548-7.886c-.671-5.592-2.517-10.856-3.308-11.3-.813-2.553-1.407-3.792-1.662-4.484a5.111,5.111,0,0,0-.421-.907c-.081-.137-.185-.32-.593-1.172-.212-.422-.469-1.026-.89-1.849-.44-.813-.958-1.89-1.717-3.24a15.025,15.025,0,0,1,1.553,2.481c-2.159-4.447-4.218-6.25-6.174-9.829l-.964-1.347-.789-1.006c-.458-.576-.783-.976-1.016-1.247-.465-.543-.554-.576-.576-.5-.053.155.215.688-1.8-1.449-3.292-3.946-4.574-5.283-5.375-6.28s-1.171-1.613-3.069-3.758c-1-.3-5.341-4.639-9.4-7.644.977.791,6.166,5.491,2.574,2.627a85.709,85.709,0,0,0-8.336-6.615c-1.886-1.3-3.692-2.549-8.284-5.722-2.128-1.883.139-.268,1.974,1.057.923.655,1.717,1.266,1.815,1.313a25.743,25.743,0,0,0-2.428-1.994c5.9,3.907,10.082,7.28,13.272,9.387-3.632-3.082-7.836-6.283-12.223-9.409s-9.024-6.078-13.4-8.865c-4.751-3.269,2.6,1.4-1.133-1.158-8.43-5.925-13.517-8.239-20.232-12.979l1.589.682c-4.4-2.419-15.13-10.052-23.176-15.186.928.813,1.527,1.341.432.724.56-.562-11.278-7.03-18.581-13.029.159.418-1.647-.667-4.088-2.281-2.407-1.659-5.459-3.834-7.718-5.663-1.512-1.385-1.045-1.268-.94-1.348a51.689,51.689,0,0,0,7.27,5.451c1.734,1.1,3.367,1.92,6.45,4.048q-2.2-1.486-4.345-3.038c-1.561-1.134-3.172-2.386-4.783-3.6s-3.14-2.488-4.589-3.6-2.716-2.191-3.816-3l1.871,1.1c-3.286-2.795-4.781-3.953-6.34-5.129a25.222,25.222,0,0,1-2.488-2.117,40.607,40.607,0,0,1-3.573-3.774l.809.471a97.469,97.469,0,0,1-8.891-10.872,99.534,99.534,0,0,1-7.168-12.362,162.379,162.379,0,0,1-8.8-24.083c-.27-.586-.083.933.164,2.659s.667,3.629.622,3.842c.338,1.041.641,2.032.97,2.965l1.006,2.654c.326.844.629,1.657.947,2.434.343.768.675,1.513,1,2.243l.963,2.148c.317.708.693,1.384,1.034,2.077.712,1.376,1.358,2.8,2.2,4.243l-.436.11c.241.3.662.973,1.127,1.739l.716,1.191c.247.4.513.769.742,1.11.926,1.357,1.464,2.07.448.107,1.461,2.279,1.894,3.213,2.46,4.188.273.494.56,1.01,1.008,1.717.224.354.488.755.809,1.225q.609.8,1.246,1.576a6.311,6.311,0,0,1-1.755-1.59c-.652-.768-1.266-1.5-1.442-1.418.544.734,1.055,1.49,1.625,2.2l1.726,2.122c-1.18-1.281,1.832,2.713.692,1.483,3.4,3.765,5.716,6.4,8.172,8.988,1.236,1.284,2.444,2.617,3.921,3.965l2.333,2.163c.847.746,1.782,1.5,2.791,2.332l-2.178-1.913c-.724-.639-1.412-1.321-2.121-1.978.1-.079.761.447,1.631,1.2s2,1.661,2.974,2.451a28.2,28.2,0,0,0,2.872,2.791c1.107.931,2.428,2.1,4.513,3.774,3.771,2.638,6.1,3.8,11.148,7.406-.681-.185,1.387,1.357,3.716,3.068a54.735,54.735,0,0,1,5.319,4.03c1.365.361,10.056,6.574,10.942,6.808,2.813,1.761,6.575,4.3,6.41,4.5-.409-.25-1.25-.766-2.129-1.307l2.746,1.837c-.294-.127-.217-.027-.546-.234,2.451,1.632,2.667,1.357,5.73,3.661a27.242,27.242,0,0,1-3.264-1.943c6.526,4.4,11.9,6.967,17.121,10.938,1.209.527,8.789,5.528,7.442,4.019,1.944,1.5.931,1.324,6.488,4.945,3.407,1.763,6.07,4.225,10.317,6.93-2.844-1.764-2.878-1.724-2.814-1.647s.213.213-2.318-1.258c3.611,2.672,9.428,6.044,15.466,11.024.559.59.453.671,1.015,1.264,1.172.863,2.465,1.755,3.669,2.738a22.263,22.263,0,0,1,3.3,3.075l-.057-.467c3.855,3.651,9.162,8.874,12.535,13.478.8.773,1.558,1.59,2.321,2.4l1.146,1.222,1.1,1.261c2.4,3.784,5.162,8.209,7.434,12.661a79.141,79.141,0,0,1,5.125,12.307c.794,3.219,1.258,8.142,1.066,8.138-.061-.375-.115-.886-.234-1.482l-.4-2.02c.16,1.191.332,2.45.383,3.719.032.634.095,1.265.1,1.891l.024,1.846c.024,2.4-.065,4.545.051,5.924-.382,4.939-.742,3.558-1.462,7.149a47.541,47.541,0,0,1-2.177,8.584,74.914,74.914,0,0,1-3.951,9.192c-.71,1.463-1.5,2.828-2.178,4.129-.726,1.276-1.4,2.462-1.993,3.511q-.794,1.336-1.508,2.717a8.814,8.814,0,0,0-.772,1.722l.943-1.422,1.073-1.7c.782-1.2,1.594-2.587,2.464-4.077a84.687,84.687,0,0,0,4.964-10.142c-.7,1.96.131.539-1,3.236-.835,1.788-1.576,3.358-2.372,4.763-.753,1.427-1.529,2.7-2.3,3.983-.753,1.289-1.6,2.522-2.44,3.9-.9,1.34-1.8,2.817-2.907,4.451l-.019-1.135c-4.077,5.36-7.887,10.519-11.711,15.242A90.376,90.376,0,0,1,714.188,832.7" transform="translate(-156.11 -121.837)"/><path class="a" d="M796.368,791.262l.339,1.378.269,1.395c.179.928.368,1.851.473,2.79l.166-.639c-.185-.854-.45-1.7-.642-2.531s-.421-1.636-.605-2.393" transform="translate(-201.772 -168.411)"/><path class="a" d="M740.684,797.456c.233,1.131.555,2.2.73,3.227a31.808,31.808,0,0,0-.69-3.4Zm-54.255,98.715q-2.383,1.98-4.682,4.058c1.3-.989,3.79-3.153,4.682-4.057m-4.878,4.493q1.124-.882,2.23-1.781l.264-.333q-1.236,1.07-2.493,2.115M561.885,1015.181c-.768,1.318-1.411,2.706-2.109,4.063l-2.055,4.085c-.238.328-.731,1.139-1.286,2.14l-1.673,3.264c-1.079,2.11-1.9,3.659-1.3,2.085-.49,1.276-1.292,2.842-1.985,4.513l-2.12,4.75c-1.288,2.808-1.914,4.558-.748,2.664a237.715,237.715,0,0,1,22.074-39.976,266.575,266.575,0,0,1,31.2-37.62l-3.3,3.731q1.9-2.058,3.843-4.077,1.763-1.666,3.559-3.3c2.254-2.022,4.212-3.826,6.186-5.461,2-1.607,3.907-3.162,5.9-4.888,1-.859,2.006-1.775,3.076-2.738,1.1-.921,2.249-1.909,3.464-2.993l-1.051,1.49c3-2.147,5.681-4.45,8.482-6.693a101.2,101.2,0,0,1,9.015-6.453l-.739.255c1.657-1.2,2.364-1.606,4.038-2.835l-.722.406c4.209-3.385,6.893-5.357,11.235-8.466.4-.08-1.942,1.572-3.235,2.613,2.062-1.337,5.184-4.175,8.465-6.724,2.676-1.868.123.23-.185.566,4.855-3.917,8.45-6.683,11.627-9.245a95.666,95.666,0,0,0,9.023-8.1c.549-.667-2.642,1.878.768-1.124-6.432,5.142-11.382,9.582-17.13,14.41l1.634-1.284c-4.18,4.31-3.643,2.673-11.021,8.767,1.819-1.781,5.1-4.335,6.3-5.486-9.091,6.258-12.251,9.959-18.591,13.649l.635-.5c-1.354.909-3.629,2.755-5.6,4.282.725-.4,2.751-1.806,4.134-2.724a24.375,24.375,0,0,0-3.416,3.214c-2.5,1.38-2.944,2.344-6.7,4.828-1.492.663,2.874-2.442,4.136-3.566l-4.26,3.34a45.229,45.229,0,0,1-6.188,3.961c-3.208,2.729,2.065-1.327-.428.993q-1.151.747-2.269,1.543c-.937.665-2.063,1.438-3.227,2.418q-4.1,3.327-8.152,6.716c-2.854,2.577-5.775,5.339-8.495,7.89-.69.626-1.313,1.3-1.929,1.939s-1.211,1.269-1.785,1.871l-3.118,3.31c2.576-2.674.669-1.181,3.878-4.349-1.2,1.1-5.161,5.355-5.006,5.561q-.476.513-.968,1.042l-.958,1.109-1.994,2.269q-2.071,2.33-4.179,4.626c-2.718,3.164-5.362,6.309-7.671,8.926l1.48-1.405-2.915,3.986c-1.091,1.457-2.314,3.023-3.627,4.7-1.349,1.651-2.619,3.532-3.991,5.483l-2.067,3.022c-.7,1.033-1.406,2.091-2.04,3.221l.119-.181c-.852,1.434-1.518,2.84-2.381,4.523q-.718,1.4-1.5,2.774c-.593,1.013-1.183,2.194-1.967,3.5.282-.815.828-1.935,1.251-2.834.445-.886.78-1.542.558-1.48m-15.669,32.782.963-3.244c-1.5,3.4-2.848,7.836-2.307,7.192.852-2.35,2.272-5.286,2.243-5.773a6.106,6.106,0,0,0-.9,1.825m-17.458,66.7a4.341,4.341,0,0,0,.121,1.587c.829-7.261,2.1-15.338,3.57-22.252q.265-1.3.518-2.542.289-1.235.563-2.4l1.041-4.345q.8-3.108,1.753-6.172c.66-2.367.991-3.785,1.326-5.373s.648-3.349,1.549-6.32l1.231-2.539c.742-3.284,4.765-12.706,2.93-9.518-.171.334-.779,2.822-1.839,5.476l-.046-.507-2.035,6.29.432-2.084a33.563,33.563,0,0,0-2.195,7.628,89.782,89.782,0,0,1-2.266,9.2l-.477-.2c-1.9,7.162-2.492,10.858-4.091,17.2,0,0,.241.106.395-1.153.271-1.191.789-2.7.77-1.85-.937,5.513-.848,5.085-.873,4.21-.006-.436.006-.978-.092-.933a8.241,8.241,0,0,0-.694,2.592c-.714,4.721-1.564,11.6-2.215,17.96s-.994,12.206-1.348,14.827c.283-2.23.41-1.678.426.093.047,1.772,0,4.762-.037,7.424-.21,2.432-.284-1.686-.413-2.561-.107,2.479-.256,4.505-.14,6.97.107-1.606.3-1.88.442-1.036.174.83.307,2.83.556,5.616q-.231-8.789-.075-17.582a153.32,153.32,0,0,1,1.214-17.691" transform="translate(-144.841 -169.681)"/><path class="a" d="M529.2,1203.76a18.848,18.848,0,0,0,.144-2.2c-.226,1.71-.372,3.434-.537,5.037l.392-2.84Z" transform="translate(-145.313 -254.992)"/><g transform="translate(-62.971 44.46)"><path class="a" d="M76.3,221.411a8.037,8.037,0,0,0-1.112-1.713q-.624-.818-1.275-1.615l-.836-1.02q-.433-.566-.926-1.214c.474.3,4.054,4.631,5.845,6.56-3.506-4.526.32-.136-.394-1.43-4.081-4.892-6.053-6.961-10.028-12.531.26.237.3.069-.121-.72-1.189-1.673-2.585-3.637-4.081-5.746-1.382-2.185-2.858-4.521-4.329-6.851a124.782,124.782,0,0,1-6.952-13.292L50.9,179.288c-.391-.824-.781-1.625-1.1-2.443l-2.028-4.78-1.04-2.406c-.36-.813-.639-1.669-.977-2.532l-2.082-5.548c-4.809-13.149-5.86-27.753-12.651-40.686a104.535,104.535,0,0,0-11.645-18.511A140.742,140.742,0,0,0,4.216,86.055L2.462,84.83.671,83.657a26.96,26.96,0,0,0-2.952-2.683c-1.155-.943-2.081-1.714-1.638-1.588,1.219,1.075,2.5,1.995,3.975,3.28a81.7,81.7,0,0,0-9.181-7.517c-3.592-2.567-7.4-5.1-10.592-7.247.69.559,1.481,1.641-.51.463.412-.084-1.477-1.348-3.718-2.724-1.12-.688-2.315-1.425-3.329-2.1a13.118,13.118,0,0,1-2.269-1.688c-3.276-2.016-3.43-1.888-3.591-1.83-.17.075-.375.127-3.858-1.841-.9-.1,6.635,3.853,7.719,4.856-2.288-1.025-6.231-3.669-6.094-3.154,5.569,3.162,13.544,7.641,21.829,13.224,4.15,2.78,8.341,5.872,12.395,9.1A142.832,142.832,0,0,1,10.2,92.379q-.832-.636-1.7-1.226a105.981,105.981,0,0,1,11.847,13.323,75.579,75.579,0,0,1,8.379,13.957c-.163-.442.226.126.8,1.255.545,1.142,1.394,2.785,2.138,4.489l1.079,2.5.5,1.131.4,1c.5,1.215.862,1.891.91,1.479.732,2.425.9,3.174,1.887,6.627l.456.893c1.19,4.976.649,4.263,2.07,10.027-.6-3.844.5.331,1.163,1.935l.239,1.266.312,1.269c.211.852.426,1.718.641,2.588l1.318,5.25c1.034,3.438,2.075,6.788,2.986,9.7A25,25,0,0,0,44.9,166.8c1.267,3.93,1.382,3.12,1.876,4.1,1.537,3.64,1,3.431.742,3.337.685,1.692,1.284,3.148,1.92,4.417.66,1.257,1.277,2.362,1.864,3.416,1.2,2.1,2.167,4.044,3.4,6.473l-.637-1.849c3.618,6.564,6.375,12.243,11.157,19.022.938,1.774-.1.424-1.632-1.717-.38-.537-.807-1.114-1.213-1.722l-1.179-1.849c-.773-1.21-1.488-2.32-1.979-3.028.806,1.484,2.63,4.563,3.123,5.586l4.054,5.275,1.133,1.49c.388.491.8.963,1.193,1.438.789.947,1.554,1.866,2.261,2.713-1.467-1.516-.615-.178.819,1.83.362.5.75,1.05,1.162,1.594l1.284,1.586Z" transform="translate(37.069 -58.178)"/><path class="a" d="M80.849,221.176c-.614-.806-1.1-1.527-1.407-1.929.459.667.832,1.322,1.508,2.329.114.063.054-.1-.1-.4M94.8,239.606c0,.032.076.142.071.166.547.614.381.395-.071-.166M70.147,199.053l.44.98.57,1.221-1.01-2.2Zm-3.9-5.03c-.517-1.532-1.262-3.621-2.118-5.98.129.694.249,1.28,2.118,5.98M51.5,145.895c-.647-1.385-.4-.54-.912-1.489.311.722.568,1.324.767,1.786.181.469.316.791.394.947.155.312.117-.052-.249-1.244m34.43,82.862,3.883,4.993,1.468,1.8Zm100.708,75.629c-1.225-.647-2.621-1.3-4.1-2.013q-2.319-1.147-4.661-2.246l-2.444-1.146c-.818-.388-1.621-.81-2.429-1.212l-4.709-2.409c-5.547-2.848-5.977-2.893-6.353-2.862-.185.008-.35.022-1.123-.32q-.858-.387-1.688-.831c-.754-.419-1.733-.978-3.017-1.728l2.156.339c-1.276-.75-2.619-1.537-4.01-2.351l-2.118-1.247-2.13-1.35-4.371-2.763c-1.48-.918-2.9-1.943-4.349-2.9-1.436-.975-2.883-1.909-4.268-2.87L133,273.641c-2.637-1.78-4.983-3.55-7.066-4.975-.646-.639-2.2-2.029.282-.2a36.689,36.689,0,0,0-5.251-3.606,19.621,19.621,0,0,1-2.246-1.529,42.715,42.715,0,0,1-4.242-3.74,19.3,19.3,0,0,0,2.952,2.272c.2.076-.234-.379-.842-.979-1.181-1.24-2.995-3.109-1.84-2.367l1.171,1.012-3.945-3.576c-.678-.626-1.388-1.227-2.05-1.872s-1.32-1.288-1.965-1.917l-3.639-3.563c-1.1-1.106-2-2.149-2.748-2.965-.279,0,2.083,3.079-1.918-1.3,1.581,1.807.761,1.25.464,1.228q1.449,1.487,2.87,3c.864.888,1.671,1.657,2.4,2.388,1.475,1.456,2.74,2.69,4.142,3.919,2.309,2.556-1.744-1.529.57,1.026l3.793,3.192c2.608,2.52-2.933-2.361,1.179,1.546.542.373,4.173,3.19,7.506,6.128l-1.03-.765c1.3,1.094,2.93,2.33,4.053,3.2s1.795,1.283,1.294.6l2.858,2.834c-.125-.215-.239-.445-.358-.667,1.823,1.43,3.374,2.622,4.787,3.771s2.71,2.229,4.14,3.266q2.315,1.735,4.691,3.387c1.778,1.233,3.907,2.492,6.483,4.033-2.387-1.623-.077-.35,1.252.422a49.815,49.815,0,0,0-4.7-2.933c-.66-.367-1.313-.73-2.062-1.144q-1.281-.782-2.527-1.62c-.207-.323,1.4.574,2.481,1.127.536.28.963.443.939.359a10.827,10.827,0,0,0-1.631-1.291c1.233.981,2.522,1.8,3.73,2.61l3.425,2.233c1.049.7,2.021,1.317,2.85,1.884a13.274,13.274,0,0,1,1.985,1.61c1.633.967,3.01,1.791,4.3,2.48l3.634,1.882q1.829.94,3.64,1.914c1.318.66,2.764,1.406,4.463,2.32l-.256,0a18.381,18.381,0,0,1,3.979,1.853,64.327,64.327,0,0,0,6.942,3.111l-3.634-1.838c.265-.106,2.04.737,4.559,1.868-.316-.052-.316-.052.465.4.907,0,8.874,3.451,9.951,3.692q-1.325-.559-2.669-1.069l-2.864-1.15c-1.956-.783-4.013-1.533-5.967-2.4,2.055.726,1.592.147,4.867,1.662" transform="translate(18.572 -76.373)"/><path class="a" d="M138.017,296.648l1.98,1.471a21.366,21.366,0,0,0-1.98-1.471m99,52.5c4.6,1.54-1.34-.1,2.94,1.424,2.4.579,1.073.076-.244-.5s-2.638-1.153-.289-.607c2.769,1.1,7.514,2.028,9.41,2.573-2.151-.387-1.064.426-.252.755,1.845.329,5.825,1.668,8.938,2.43a9.02,9.02,0,0,1-2.28-.729c.146,0,.967.2,1.823.37,1.707.354,3.5.723.1-.247.574-.169,7.785,1.374,10.667,2.141a22.878,22.878,0,0,1-4.56-.806c-.823-.006.368.368,1.912.726a27.542,27.542,0,0,1,3.93,1.1l7.858,1.191c3.15.479,6.547,1.106,9.533,1.6,5.965.985,10.2,1.64,6.976.54-2.48-.658-4.667-.869-7.39-1.367,7.584,1.663-.036.462-.708.489-3.2-.783-8.839-1.578-7.506-1.633,1.737.2,3.47.447,5.208.672-4.118-.9-8.63-1.641-13.339-2.649-4.713-.972-9.629-2.113-14.6-3.356-9.936-2.507-20.072-5.525-29.179-8.732,2.633.9,5.251,1.848,7.9,2.713-1.008-.046-4.739-1.353-7.678-2.235l3.675,1.874c-2.264-.826-4.477-1.5-4.212-1.624-1.437-.355-1.834-.436-1.692-.273a9.284,9.284,0,0,0,1.651.882c-2.967-.994-4.649-1.7-6.194-2.262s-2.93-1.035-5.231-1.785c2.361,1.108,4.095,1.762,5.5,2.284s2.5.873,3.638,1.242l3.929,1.258c1.6.522,3.6,1.284,6.4,2.29l3.359.245Zm-21.564-7.282c.8.229,1.614.444,2.432.638-1.223-.39-2.421-.851-3.629-1.281Zm4.148.237c.076.163-1.378-.32-1.3-.158,4.5,1.775,4.027,1.408,1.3.158m55.808,16.935c2.058.346,4.119.688,6.157,1.063q-1.983-.454-3.973-.874a8.025,8.025,0,0,1-2.186-.189" transform="translate(0.123 -108.499)"/><path class="a" d="M360.371,385.242c-2.077-.656-3.852-1.228-5.509-1.707l-4.754-1.318-11.137-2.995c-4.773-.75,2.016,1.208-.074,1.061,4.715,1.2,4.27.464,9.19,1.639a43.3,43.3,0,0,0,4.765,1.471c2.144.548,4.616,1.3,6.9,2.077-.518-.31-.471-.454.621-.229" transform="translate(-41.915 -125.887)"/><path class="a" d="M392.538,399.786c1.729.958,3.465,1.92,5.111,2.831,1.616.96,3.124,1.909,4.4,2.81a24.855,24.855,0,0,1-4.489-2.589,12.294,12.294,0,0,0,2.683,1.913c.612.369,1.3.778,2.046,1.258.727.51,1.511,1.089,2.339,1.762-.274-.253-1.49-1.2-.454-.6l2.712,1.924,1.833,1.374c1.022.753,1.722,1.228,2.491,1.778a79.467,79.467,0,0,1,8.287,7.323c1.488,1.322,2.875,2.724,2.858,2.272q.832.893,1.59,1.851l1.015,1.273,1.225,1.578c.365.454.737.97,1.374,1.834s1.592,2.04,2.948,3.954c-.036-.418-1.7-3.052-1.359-3.245l1.432,1.872,1.2,1.7,2.025,2.8q1.391,2.071,2.832,4.108c.806,1.149,1.454,2.22,2.219,3.433.376.61.773,1.26,1.2,1.994l1.316,2.53c-.252-.407-.526-.852-.889-1.439l-.6-1.012c-.232-.379-.495-.807-.794-1.3a5.1,5.1,0,0,0,.686,1.516c.379.7.9,1.559,1.485,2.511a65.9,65.9,0,0,1,3.582,6.35l-.624-.207.847,1.557c.282.566.583,1.168.895,1.8.619,1.258,1.319,2.61,1.967,4.024q.949,2.146,1.846,4.314c.6,1.422,1.049,2.857,1.477,4.16l-.658-1.077,1.621,3.929q.74,2.028,1.494,4.1l.74,2.078.673,2.105,1.329,4.2q2.258,7.784,4.146,15.668l.821,5.057c1.423,6.388.844,3.191.211-.448-.716-3.62-1.49-7.69-.121-3.08-.477,1.578,1.673,6.569,2.734,13.986.335,3.524-1.593-7.4-1.234-3.487.734,1.54.868,3.893,1.735,7.769-.577-.762,1.636,8.172.685,5.85q1.822,6.777,3.925,13.474a36.969,36.969,0,0,0,.97,4.278c.439,1.615.916,3.316,1.408,4.734a16.925,16.925,0,0,1-.753-2.907c-.021-.3.12-.1.259.073.277.341.544.563-.5-3.538-1.7-5.921-3.667-13.921-5.371-22.368L462.9,507.418c-.382-2.114-.86-4.181-1.283-6.2l-.631-2.988-.678-2.872a10.029,10.029,0,0,1-.791-2.174l-.937-3.472a39.283,39.283,0,0,0-1.957-6.171c.065-.394-.133-1.546-.073-1.957-1.534-4.739-1.464-4.144-1.065-2.671.371,1.485,1.01,3.866.552,2.741q-.481-1.452-.9-2.925c-.265-.9-.513-1.695-.685-2.361-.355-1.329-.481-2.109-.32-1.953-1.136-3.382-1.316-3.528-1.284-3.282.011.252.138.923-.655-.72-.368-1.516-.718-3.045-1.1-4.567a176.782,176.782,0,0,0-7.759-16.113,142.265,142.265,0,0,0-10.65-16.337A126.96,126.96,0,0,0,419.36,418.41a128.714,128.714,0,0,0-15.133-12.419l1.352,1.417a91.819,91.819,0,0,0-12.95-7.832l-3.085-1.54-1.531-.789-1.561-.755q-1.59-.781-3.152-1.616c-1.067-.558-2.173-1.1-3.292-1.707-1.1-.349-2.185-.748-3.3-1.052,1.819.523-1.625-1.276,1.258-.4-2.941-1.038-5.973-2.432-9.066-3.375,1.775.7,3.554,1.393,5.294,2.178-1.909-.613-3.9-1.273-5.553-1.917q-1.1-.427-2.175-.91a13.652,13.652,0,0,1-1.394-.659c-4.132-1.142-2.968-.587-.572.361l1.965.771,2.029.855c1.3.551,2.4,1.032,2.817,1.268A70.885,70.885,0,0,1,378,392.74c1.707.777,3.038,1.469,4.344,2.166,2.58,1.471,5.081,2.922,10.194,5.521,6.261,3.375-.462-.711,0-.641m-12.927-7.461q-.817-.321-1.647-.609c.575.226,1.115.428,1.647.609m92.122,156.61c.271.854.589,1.859,1.015,3.206.431,1.058-.172-.66-1.015-3.206" transform="translate(-47.212 -127.437)"/><path class="a" d="M364.234,386.96s0,0,.024.015l.084.021Zm-5.754-.85c1.026.291,2.033.645,3.045.974l-.475-.339c-.854-.223-1.707-.448-2.571-.635M483.848,580.128l.186-.079c-.2-.215-.325-.291-.186.079M551.5,641.263l-1.619-1.162q.786.612,1.618,1.162" transform="translate(-46.399 -127.377)"/><path class="a" d="M634.581,857.2c-3.935,4.485-9.461,10.19-12.418,13.484l.17-.443c-2.2,2.3-9.579,9.585-4.442,5.294l1.064-1.233c5.278-5.44,4.223-3.554,8.531-7.626,4.966-5.15,7.224-8.658,11.553-13.264,1.793-2.109,1.669-1.65,1.248-.93,4.2-4.789,5.289-7.109,7.876-10.606,1.144-.222,4.037-4.188,7.089-9.178,1.546-2.483,3.061-5.259,4.53-7.893,1.425-2.659,2.783-5.188,3.97-7.237,2.39-5.452,5.246-13.019,6.083-20.612-.183,2.02.208.271.454-1.811.159-1.034.262-2.151.348-2.9s.184-1.136.258-.712a26.224,26.224,0,0,1-.187-4.373c-.047-1.087-.011-2.312-.12-3.595-.037-.642-.076-1.3-.117-1.967-.071-.663-.144-1.333-.217-2-.56-5.367-2.168-10.46-2.929-10.905-.7-2.47-1.212-3.685-1.441-4.353a5.776,5.776,0,0,0-.364-.887c-.074-.134-.168-.313-.529-1.142-.179-.417-.428-.994-.776-1.809l-1.513-3.175a15.357,15.357,0,0,1,1.393,2.438c-1.876-4.354-3.812-6.145-5.5-9.675-1.278-2.01-2.086-3.021-2.5-3.568s-.511-.574-.536-.5.008.245-.172.127a13.539,13.539,0,0,1-1.5-1.587c-2.979-3.924-4.148-5.263-4.868-6.256s-1.039-1.607-2.766-3.745c-.967-.309-4.928-4.665-8.707-7.695.9.8,5.684,5.511,2.351,2.631a79.116,79.116,0,0,0-7.728-6.659l-7.732-5.78c-1.959-1.893.15-.262,1.86,1.077.86.663,1.6,1.274,1.692,1.324a23.585,23.585,0,0,0-2.249-2.006c5.522,3.949,9.391,7.347,12.376,9.477-3.358-3.1-7.263-6.328-11.353-9.48s-8.434-6.142-12.535-8.964c-4.434-3.306,2.449,1.426-1.035-1.163-7.865-5.984-12.679-8.347-18.951-13.122l1.508.7c-4.146-2.452-14.165-10.137-21.739-15.279.863.81,1.42,1.335.384.717.569-.545-10.609-7.055-17.486-12.954.14.411-1.579-.655-3.891-2.241-2.285-1.623-5.177-3.75-7.333-5.513-1.434-1.344-.984-1.235-.88-1.315a50.184,50.184,0,0,0,6.918,5.3c1.657,1.068,3.2,1.889,6.126,3.975-4.963-3.365-12.54-9.7-16.677-12.88l1.8,1.041c-3.143-2.692-4.6-3.772-6.107-4.888a25.275,25.275,0,0,1-2.421-1.988q-.792-.726-1.556-1.483-1.018-.987-1.948-2.061l.794.424c-1.5-1.575-3.092-3.137-4.555-4.854-.737-.852-1.512-1.682-2.23-2.566s-1.432-1.778-2.15-2.671a103.2,103.2,0,0,1-7.711-11.336l-.868-1.448-.8-1.471q-.793-1.467-1.576-2.909l-1.43-2.908c-.469-.958-.949-1.9-1.355-2.852-.836-1.9-1.71-3.715-2.416-5.511-.739-1.783-1.485-3.478-2.1-5.113-.3-.54-.034.911.372,2.532.424,1.613.931,3.418.915,3.621.387.975.813,1.876,1.221,2.734l1.172,2.454c.753,1.563,1.565,2.941,2.287,4.289q.277.5.547,1l.584.959,1.155,1.9c.743,1.284,1.591,2.526,2.462,3.866l-.424.15a19.691,19.691,0,0,1,1.2,1.581l1.594,2.072c.969,1.24,1.529,1.888.446.064,1.516,2.108,2.077,2.911,2.634,3.844.284.461.584.942,1.048,1.6s1.15,1.44,2.133,2.561a6.433,6.433,0,0,1-1.773-1.423c-.714-.66-1.307-1.352-1.486-1.251.541.686,1.114,1.347,1.7,1.994l1.741,1.957c-.592-.585-.129.045.342.682.486.622.994,1.239.391.7,1.722,1.715,3.1,3.235,4.434,4.553l1.864,1.955c.6.636,1.21,1.226,1.8,1.84,1.192,1.22,2.386,2.459,3.8,3.748l2.246,2.058c.819.705,1.707,1.44,2.676,2.23-1.39-1.221-2.784-2.438-4.126-3.717.1-.08.738.417,1.576,1.129s1.925,1.583,2.854,2.343a28.09,28.09,0,0,0,2.734,2.7c1.046.907,2.314,2.025,4.283,3.664,3.585,2.569,5.806,3.7,10.572,7.27-.655-.183,1.292,1.34,3.485,3.033a50.888,50.888,0,0,1,4.988,4.008c1.31.366,9.457,6.575,10.3,6.822,2.649,1.765,6.171,4.327,6,4.519-.384-.253-1.174-.773-2-1.316l2.572,1.846c-.276-.129-.207-.029-.516-.237,2.3,1.641,2.522,1.37,5.375,3.686a25.188,25.188,0,0,1-3.069-1.961c6.111,4.431,11.2,7.043,16.049,11.043,1.146.539,8.233,5.6,7.009,4.087,1.807,1.514.834,1.318,6.029,4.984,3.214,1.8,5.663,4.268,9.644,7-2.665-1.789-2.708-1.74-2.646-1.667s.193.213-2.182-1.281c3.362,2.69,8.824,6.117,14.415,11.125.508.59.4.668.911,1.261,1.094.868,2.3,1.774,3.413,2.759a20.333,20.333,0,0,1,3.027,3.085l-.027-.459c3.536,3.661,8.4,8.887,11.417,13.452.746.77,1.418,1.6,2.127,2.4s1.387,1.632,2.054,2.47c2.122,3.737,4.58,8.093,6.6,12.441a84.587,84.587,0,0,1,4.562,11.948c.676,3.1,1.076,7.828.885,7.824-.072-.726-.323-1.947-.576-3.365.125,1.146.29,2.354.32,3.573.029.608.059,1.215.09,1.815,0,.6,0,1.194.008,1.771.032,1.153-.016,2.244-.006,3.212.026.968.016,1.811.084,2.473q-.036.759-.092,1.516c-.046.424-.1.773-.154,1.072a11.265,11.265,0,0,1-.3,1.329,24.666,24.666,0,0,0-.786,2.955c-.489,4.775-2.692,11.582-5.36,17.224-2.6,5.682-5.428,10.3-5.714,11.824.5-.847,1.114-1.886,1.814-3.067q1.137-1.981,2.207-4a80.859,80.859,0,0,0,4.4-9.895c-.563,1.917.178.527-.844,3.139a70.938,70.938,0,0,1-4.163,8.548L659.8,824.63l-1.142,1.936c-.76,1.347-1.651,2.748-2.6,4.388l-.1-1.109c-3.682,5.3-7.159,10.377-10.629,15.056a83.952,83.952,0,0,1-10.753,12.3" transform="translate(-77.192 -172.93)"/><path class="a" d="M657.134,816.706l.286,1.332.221,1.345c.144.9.305,1.785.387,2.687l.184-.612Zm1.077,4.753c.205,1.089.48,2.125.649,3.107-.141-1.187-.393-2.309-.605-3.274Zm-49.377,96.605c-.89.81-2.656,2.378-4.347,4.049,1.2-1,3.535-3.137,4.347-4.049m-4.514,4.479,2.077-1.781.241-.329c-.773.7-1.535,1.419-2.317,2.111M492.082,1035.215c-1.378,2.583-2.669,5.212-4,7.81a19.189,19.189,0,0,0-1.235,2.05l-1.637,3.116c-1.057,2.012-1.856,3.49-1.272,1.984-2.028,4.819-7.128,14.962-4.762,11.4a252.121,252.121,0,0,1,21.364-38.257,287.7,287.7,0,0,1,29.39-36.537l-3.09,3.644q1.783-2.011,3.61-3.981.808-.89,1.684-1.714c.56-.536,1.1-1.052,1.625-1.557,2.1-2,3.986-3.726,5.787-5.4,1.868-1.6,3.666-3.129,5.529-4.836q1.456-1.333,2.869-2.713c.981-.973,2.085-1.915,3.2-3.006l-.948,1.475c2.813-2.146,5.331-4.416,7.919-6.675a92.1,92.1,0,0,1,8.453-6.449l-.707.258c1.553-1.2,2.223-1.6,3.79-2.832l-.684.407c3.927-3.381,6.446-5.343,10.515-8.455.384-.083-1.811,1.57-3.019,2.606,1.943-1.336,4.837-4.164,7.9-6.708,2.512-1.868.132.225-.151.558,4.527-3.911,7.89-6.67,10.852-9.229a87.366,87.366,0,0,0,8.37-8.071c.5-.66-2.48,1.875.692-1.112-6,5.132-10.593,9.558-15.945,14.374l1.524-1.284c-3.849,4.289-3.411,2.672-10.286,8.75,1.681-1.774,4.745-4.319,5.857-5.468-8.534,6.259-11.422,9.936-17.411,13.636l.593-.5c-1.271.91-3.4,2.746-5.24,4.274.685-.4,2.585-1.81,3.888-2.725a22.234,22.234,0,0,0-3.166,3.2c-2.362,1.385-2.757,2.331-6.276,4.829-1.415.673,2.663-2.448,3.84-3.563l-3.973,3.341a40.072,40.072,0,0,1-5.827,3.963c-2.991,2.714,1.947-1.325-.368.979-2.17,1.345-7.27,5.719-12.766,10.637q-4,3.857-7.957,7.765-3.223,3.466-6.387,6.985c2.422-2.609.609-1.153,3.632-4.246-1.132,1.076-4.851,5.228-4.689,5.429-2.285,2.765-4.947,5.829-7.593,8.83-2.521,3.1-5.1,6.09-7.229,8.668.442-.475.915-.927,1.389-1.377-.817,1.141-1.68,2.477-2.733,3.87s-2.2,2.912-3.455,4.528c-.638.8-1.245,1.659-1.871,2.546l-1.92,2.74c-1.284,1.892-2.692,3.838-3.909,6.006l.115-.174c-.818,1.375-1.454,2.724-2.282,4.34q-.687,1.346-1.434,2.661-.9,1.7-1.886,3.356c.533-1.57,2.12-4.283,1.716-4.151m-15.3,31.319.965-3.1c-1.5,3.23-2.843,7.475-2.309,6.869.849-2.242,2.27-5.031,2.241-5.5a5.645,5.645,0,0,0-.9,1.733m-18.687,63.474a4.013,4.013,0,0,0,.065,1.528c1.1-6.923,2.605-14.618,4.251-21.195l.583-2.42q.316-1.175.619-2.286l1.136-4.133c.733-2.523,1.412-4.543,1.869-5.863.705-2.25,1.057-3.6,1.412-5.117s.7-3.2,1.633-6.025l1.254-2.4c.788-3.131,4.84-12.083,3-9.071-.172.316-.793,2.694-1.866,5.216l-.041-.489-2.093,5.986.452-1.993a31.759,31.759,0,0,0-2.285,7.262,78.184,78.184,0,0,1-2.415,8.758l-.471-.213c-2.036,6.807-2.722,10.331-4.481,16.347,0,0,.237.114.421-1.09.3-1.133.857-2.563.816-1.744-2.062,10.531.032-1.71-1.817,5.562-.839,4.5-1.921,11.061-2.8,17.126s-1.482,11.652-1.942,14.146c.376-2.122.481-1.586.422.11-.034,1.7-.21,4.564-.376,7.111-.327,2.319-.2-1.629-.3-2.474-.219,2.37-.465,4.3-.473,6.669.189-1.533.389-1.786.495-.97.13.8.17,2.727.268,5.408.163-5.951.424-11.424.763-16.846a151.455,151.455,0,0,1,1.9-16.9" transform="translate(-66.695 -218.24)"/></g><path class="a" d="M458.672,1217.837a15.723,15.723,0,0,0,.226-2.1c-.281,1.629-.5,3.275-.723,4.8Z" transform="translate(-130.407 -257.983)"/><path class="a" d="M-55.507,298.152c-.081-.52-1.026-2.163-3.24-5.5.509.25,3.26,4.627,4.739,6.549-2.738-4.5.32-.1-.182-1.371-1.587-2.468-2.813-4.2-4.063-5.978q-2.091-3.143-3.988-6.409c.234.23.287.077-.047-.672-1.912-3.255-4.541-7.626-6.806-12.168-.58-1.128-1.169-2.25-1.722-3.365l-1.519-3.315c-.955-2.156-1.9-4.129-2.506-5.873l-1.888-4.691c-.3-.75-.624-1.479-.907-2.22s-.557-1.482-.838-2.227c-.57-1.487-1.148-2.994-1.757-4.586-.639-1.582-1.158-3.3-1.808-5.143l-1.46-4.611-1.3-4.683-1.315-4.7c-.465-1.558-.847-3.147-1.408-4.684a95.578,95.578,0,0,0-8.161-18c-6.751-11.507-15.8-21.839-26.068-31.042l-3.32-2.13a28.2,28.2,0,0,0-2.75-2.436c-1.048-.886-1.935-1.555-1.507-1.465,1.15.955,2.28,1.856,3.69,2.982a74.812,74.812,0,0,0-8.505-6.855c-3.294-2.382-6.833-4.663-9.742-6.68.627.524,1.325,1.565-.5.47.4-.11-1.361-1.235-3.4-2.544a32.681,32.681,0,0,1-5.117-3.543c-3.006-1.868-3.135-1.776-3.3-1.7s-.361.14-3.548-1.707c-.426-.032,1.091.872,2.843,1.894a44.189,44.189,0,0,1,4.208,2.666,34.439,34.439,0,0,1-3.628-2.01c-1.153-.671-2.025-1.169-1.969-.919,5.089,2.974,12.419,7.117,20.042,12.261,1.923,1.261,3.828,2.631,5.767,3.992,1.9,1.412,3.842,2.814,5.705,4.305A139.629,139.629,0,0,1-116.15,179.2l-1.6-1.078a106.977,106.977,0,0,1,11.332,11.888A76.908,76.908,0,0,1-98.03,202.44c-.328-.812,1.479,2.053,3.1,5.07.848,1.488,1.58,3.049,2.2,4.095.6,1.055.945,1.665.983,1.269.8,2.2,1.146,2.814,2.271,5.925l.55.757a39.378,39.378,0,0,1,1.258,4.237c.229,1.055.451,2.185,1.2,4.779-.658-3.479.51.275,1.188,1.744.693,3.045,1.363,6.375,2.284,9.547l1.272,4.687c.4,1.52.9,2.941,1.294,4.283a16.276,16.276,0,0,0-.649-2.8c1.2,3.6,1.261,2.878,1.707,3.784,1.265,3.408.756,3.209.5,3.12,2.375,6.286,4.219,8.758,6.1,13.4l-.443-1.752c.735,1.561,1.416,3.069,2.073,4.562l2.1,4.395c.716,1.464,1.386,2.977,2.2,4.492q1.28,2.387,2.619,4.742c.69,1.717-.148.394-1.372-1.695l-1.982-3.422c-.631-1.157-1.195-2.233-1.6-2.915.308.714.824,1.81,1.308,2.848.521,1.021,1,1.988,1.187,2.477l3.29,5.154c1.282,1.889,2.616,3.858,3.754,5.538-1.206-1.519-.582-.2.558,1.766,1.182,1.935,2.858,4.518,3.558,5.627m75.177,71.332c-4.035-3.117-10.362-7.087-15.3-10.963Q3,357.528,1.609,356.572c-.694-.484-1.177-.828-1.539-1.052-.717-.455-.907-.477-1.08-.491-.339-.038-.642-.008-4.906-3.431.643.2,1.3.387,1.957.563-2.126-1.7-4.4-3.675-6.8-5.681l-3.55-3.169c-1.195-1.067-2.413-2.12-3.565-3.229-2.324-2.191-4.668-4.29-6.751-6.343l-5.786-5.46c-.493-.678-1.707-2.167.3-.165-4.967-5.323-3.444-1.982-9.631-9.532,6.329,6.579-1.588-2.559.44-1q.464.54.959,1.052c-1.018-1.157-2.058-2.458-3.158-3.749-1.079-1.308-2.234-2.593-3.247-3.908-2.037-2.619-3.976-4.989-5.113-6.673-.267-.022,1.518,3.077-1.636-1.379,1.235,1.83.536,1.241.252,1.2,1.692,2.283,3.1,3.966,4.246,5.486a47.141,47.141,0,0,0,3.356,4.03c1.781,2.626-1.408-1.6.374,1.024l3.058,3.381c2.062,2.625-2.406-2.493.879,1.561a26.339,26.339,0,0,1,2.225,2.236c1.133,1.19,2.47,2.782,3.868,4.272l-.868-.8c2.2,2.223,5.093,5.55,4.4,4.134q1.075,1.508,2.224,2.961l-.228-.663c1.475,1.538,2.69,2.866,3.811,4.115s2.2,2.356,3.318,3.542c1.137,1.164,2.3,2.422,3.776,3.755q2.6,2.366,5.307,4.605c-1.922-1.834-.024-.324,1.111.525-1.7-1.549-2.754-2.5-3.857-3.341-1.085-.865-2.2-1.66-3.811-3.131-.3-.623,5.473,4.022,1.655.369,2.039,2.054,4.063,3.9,5.8,5.44a22.642,22.642,0,0,1,3.86,3.913c2.663,2.263,4.643,3.649,6.571,5.122,1.944,1.45,3.953,2.837,6.735,5.047l-.235-.037A16.423,16.423,0,0,1,9.7,363.9a42.073,42.073,0,0,0,5.85,3.85c-1.015-.728-2.051-1.426-3.042-2.19.255-.054,1.753.959,3.9,2.325-.28-.092-.281-.092.352.447a33.96,33.96,0,0,1,4.2,2.323c1.922,1.116,3.849,2.272,4.3,2.492-1.409-.918-3.022-1.858-4.709-2.821q-2.553-1.5-5.06-3.072c1.785.929,1.448.338,4.178,2.227m27.14,16.207c3.98,2.028-1.221-.248,2.466,1.725,4.186,1.757-4.452-2.742-.3-1.136a37.4,37.4,0,0,0,4.353,2.1c1.554.633,3.015,1.193,3.845,1.566-1.912-.634-1.05.286-.361.707,1.6.623,5.07,2.325,7.779,3.5-3.266-1.55-1.851-1-.356-.418s3.077,1.173.136-.229a5.642,5.642,0,0,1,1.344.359c.716.221,1.643.539,2.63.895,1.977.71,4.185,1.606,5.443,2.156a4.316,4.316,0,0,1-1.482-.371c-.762-.276-1.7-.661-2.558-.992-.758-.09.287.379,1.628.959A26.648,26.648,0,0,1,74.8,398.06l15.525,4.709c5.33,1.6,9.135,2.647,6.322,1.251-2.181-.9-4.156-1.338-6.583-2.109,6.719,2.422-.1.453-.722.41-2.833-1.088-7.884-2.49-6.647-2.4l4.678,1.221-5.716-1.967-3.012-1.039-3.075-1.137-3.153-1.16-3.185-1.262L66,393.3l-3.243-1.371q-12.912-5.461-25.272-12.111c2.224,1.272,4.513,2.424,6.779,3.617a19.787,19.787,0,0,1-2.727-1.16l-1.97-.951-1.971-1.008c1,.777,2.009,1.554,3.039,2.291-1.96-1.041-3.834-2.047-3.577-2.118-2.491-1.1-1.479-.372-.149.589-5.106-2.678-5.779-3.4-9.808-5.326,2.006,1.318,3.459,2.213,4.654,2.907s2.157,1.138,3.142,1.632,2.014.993,3.382,1.732,3.113,1.64,5.5,3c1.011.233,2.017.473,3.038.67m-18.54-9.765,2.129.916-3.124-1.673Zm3.778.753c.039.17-1.2-.5-1.165-.327a16.96,16.96,0,0,0,2.866,1.616,9.838,9.838,0,0,0-1.7-1.289M80.361,400.06l5.494,1.736-3.521-1.3c.047.15-1.286-.238-1.972-.439" transform="translate(0 -32.639)"/><path class="a" d="M187.8,481.056c-7.431-2.982-10.7-3.958-19.08-7.33-4.294-1.16,1.695,1.367-.208,1.04,4.179,1.613,3.877.813,8.268,2.351a33.347,33.347,0,0,0,4.242,1.746c1.915.692,4.15,1.5,6.182,2.391-.45-.331-.394-.471.595-.2" transform="translate(-68.993 -101.341)"/><path class="a" d="M216.911,495.637c.806.424,1.622.835,2.43,1.235L221.7,498.1a43.048,43.048,0,0,1,4.182,2.377,6.356,6.356,0,0,1-1.584-.686q-1.362-.693-2.68-1.468a10.112,10.112,0,0,0,2.567,1.624,43.527,43.527,0,0,1,4.21,2.535c-.268-.215-1.453-1-.451-.529,4.148,2.582,5.362,3.229,6.852,4.13.748.447,1.57.948,2.86,1.788,1.266.873,3.014,2.069,5.54,3.994,1.546.992,3,2.075,2.941,1.646,5.433,4.773,2.651,2.432,9,8.309-.107-.372-2.015-2.525-1.723-2.772q1.515,1.371,2.98,2.8l2.32,2.18q1.638,1.61,3.322,3.173c.94.884,1.744,1.712,2.664,2.656.458.476.943.982,1.466,1.562s1.065,1.253,1.688,2.01c-.624-.623-1.349-1.37-2.8-2.91a4.357,4.357,0,0,0,.9,1.241c.479.552,1.12,1.219,1.844,1.953a63.719,63.719,0,0,1,4.53,4.949l-.63-.032c2.632,3.015,7.151,8.3,9.644,12.715l-.836-.81c6.19,8.175,11.724,18.867,15.5,26.723.568,1.465,1.09,2.948,1.637,4.419q.644,1.333,1.255,2.681c.219.464.272.534.215.331s-.231-.677-.462-1.3l-.88-2.163c-1.262-3.152-2.755-6.659-.619-2.782-.119.783.567,2.178,1.59,4.188a73.254,73.254,0,0,1,3.4,7.939c.907,3.127-2.787-6.383-1.787-2.907.962,1.243,1.5,3.349,3,6.687-.679-.579,2.859,7.12,1.575,5.2l.7,1.456.768,1.426,1.533,2.849,3.06,5.685a73.725,73.725,0,0,0,3.89,7.647c-3.265-6.152,1.429,1.391-2.062-5.574l-1.069-1.936-1.037-2.133-2.227-4.646-1.181-2.477-.6-1.271-.555-1.314-2.252-5.405q-2.3-5.529-4.52-11.094c-.781-1.819-1.554-3.612-2.305-5.357l-2.3-5.029a27.7,27.7,0,0,1-2.693-4.721,35.455,35.455,0,0,0-3.019-5.141c.006-.381-.4-1.383-.424-1.764-4.8-7.817.838,2.006-.482.189-1.063-1.7-1.914-3.3-2.5-4.422s-.869-1.791-.683-1.69c-3.53-5.539-.5-.543-2.6-3.165l-1.924-3.878c-3.036-4.139-6.481-8.489-10.346-12.807a168.661,168.661,0,0,0-12.74-12.642,180.558,180.558,0,0,0-14.391-11.565c-4.973-3.593-10.048-6.914-15.013-9.962l1.325,1.226a120.52,120.52,0,0,0-12.284-6.6c-3.827-1.868-7.541-3.6-11.594-5.96-1-.361-2.023-.679-3.033-1.018,1.658.54-1.428-1.278,1.195-.385-1.333-.527-2.679-1.144-4.044-1.756-1.371-.595-2.754-1.2-4.141-1.728l4.759,2.256a44,44,0,0,1-8.2-3.669c-7.43-2.627,4.087,2.375,5.526,3.412a53.722,53.722,0,0,1,10.03,4.6l3.806,2.2c1.46.814,3.235,1.718,5.606,2.9,5.92,2.851-.447-.641.006-.634m-11.832-7q-.749-.3-1.512-.57c.528.213,1.023.4,1.512.57M314.891,618.6c.4.722.82,1.6,1.5,2.707.316.424.241.286-.08-.218s-.81-1.416-1.419-2.489" transform="translate(-73.704 -103.238)"/><path class="a" d="M191.169,483.053s0,0,.021.014l.077.026c-.036-.016-.074-.03-.1-.04m-5.253-1.106c.911.367,1.828.722,2.733,1.1l-.409-.359ZM331.281,644.505l.17-.108c-.214-.167-.339-.217-.171.108m62.69,56.293-1.407-1.176c.426.4.929.8,1.407,1.176" transform="translate(-72.956 -103.14)"/><path class="a" d="M475.909,904.866c-3.222,4.444-7.777,10.163-10.213,13.429l.108-.43c-.928,1.131-2.905,3.54-4.111,5.122-1.237,1.553-1.681,2.3.528.146l.852-1.239c4.366-5.446,3.64-3.553,7.219-7.677q1.408-1.747,2.73-3.562c.766-1.141,1.478-2.2,2.177-3.238s1.381-2.056,2.126-3.092c.726-1.049,1.48-2.143,2.375-3.292,1.471-2.08,1.408-1.641,1.09-.94a44.444,44.444,0,0,0,3.624-5.724c.873-1.584,1.637-2.965,2.607-4.721.534-.143,1.36-1.193,2.384-2.795q.411-.643.8-1.3c.253-.479.518-.985.794-1.512l1.728-3.419c.628-1.189,1.153-2.492,1.726-3.781l1.72-3.853q.735-1.873,1.546-3.715c.521-1.17,1.059-2.252,1.488-3.253a77.328,77.328,0,0,0,4.186-19.336c0,1.874.177.237.383-1.677.276-1.909.231-4.116.458-3.338a15.538,15.538,0,0,1-.256-4.016c-.013-1-.128-2.121-.178-3.3l-.1-1.81a15.9,15.9,0,0,0-.15-1.844l-.507-3.6c-.087-.574-.174-1.13-.256-1.661q-.177-.743-.377-1.481c-.5-1.846-.941-3.145-1.285-3.371a23.951,23.951,0,0,0-.7-2.66l-.424-1.4a6.676,6.676,0,0,0-.288-.836c-.159-.241-.124-.74-2.185-5.8a14.85,14.85,0,0,1,1.14,2.32,34.043,34.043,0,0,0-2.221-4.925,23.326,23.326,0,0,1-2.108-4.361,21.393,21.393,0,0,0-1.264-2.26q-.369-.607-.761-1.2c-.354-.523-.434-.559-.466-.495-.066.129.053.657-1.421-1.473-.293-.485-.543-.944-.806-1.347l-.74-1.1c-.448-.674-.815-1.228-1.123-1.692-.61-.935-.97-1.524-1.248-2.017a34.871,34.871,0,0,0-2.2-3.678,12.9,12.9,0,0,1-2.781-2.874q-2.209-2.519-4.582-4.886c.723.843,4.768,5.509,1.911,2.629-1.756-1.959-2.949-3.367-4-4.355q-1.254-1.208-2.554-2.365c-.75-.677-1.486-1.339-2.492-2.243s-2.328-2-4.158-3.642c-3.28-3.8,7.256,6.616,1.19.432,1.188,1.012,2.336,1.933,3.335,2.876s1.932,1.824,2.8,2.643q1.2,1.136,2.44,2.24c.76.675,1.408,1.337,2.057,1.879-1.363-1.6-2.96-3.143-4.574-4.762l-2.464-2.45c-.834-.822-1.74-1.586-2.618-2.387-1.782-1.574-3.542-3.211-5.374-4.727l-5.421-4.472c-3.8-3.388,2.148,1.486-.84-1.168-6.693-6.167-11.014-8.6-16.385-13.482l1.346.735c-1.815-1.275-4.872-3.867-8.328-6.764s-7.262-6.157-10.6-8.732c.737.8,1.213,1.326.292.7.588-.509-9.319-7.109-15.4-12.807.186.81-6.184-4.155-10.135-7.4-1.3-1.256-.864-1.176-.765-1.25,6.229,5.586,6.533,4.814,11.779,8.849-2.217-1.641-5-4-7.744-6.276l-3.97-3.285c-1.236-1.037-2.376-1.963-3.338-2.683l1.671.948a52.686,52.686,0,0,0-5.67-4.45,41.393,41.393,0,0,1-5.58-4.953l.771.333c-3.007-2.66-5.88-5.711-8.856-8.708-.755-.738-1.456-1.531-2.156-2.327l-2.1-2.375-2.1-2.364c-.345-.4-.707-.776-1.035-1.182l-.97-1.227-3.827-4.809-.941-1.17-.862-1.207q-.856-1.2-1.688-2.369-1.627-2.238-3.256-4.482-1.381-2.138-2.81-4.245c-.775-.848,2.12,5.014,2.2,5.373,2.309,3.1,4.148,5.528,5.926,7.706,1.876,2.1,3.607,4.024,5.519,6.254l-.389.216q1.549,1.443,3.069,2.914c1.051,1,1.653,1.513.436-.014a25.048,25.048,0,0,1,2.815,3.24c.3.4.609.821,1.1,1.375.508.536,1.191,1.207,2.205,2.135-.641-.007-3.016-2.269-3.293-2.083,1.142,1.125,2.359,2.174,3.533,3.264-1.2-.952,1.918,2.141.754,1.228,3.3,3,5.584,5.065,7.815,7.271,1.129,1.085,2.22,2.233,3.536,3.4q2.228,2,4.543,3.909l-3.794-3.408c.2-.164,2.384,1.771,4.095,3.161a32.25,32.25,0,0,0,2.454,2.543l3.864,3.444c3.235,2.443,5.247,3.55,9.484,7.021-1.208-.368,6.86,5.975,7.394,6.933,1.212.371,8.308,6.576,9.072,6.848,2.318,1.787,5.374,4.381,5.192,4.562-.337-.256-1.027-.786-1.751-1.338l2.234,1.87c-.249-.133-.193-.035-.465-.245,1.995,1.662,2.239,1.408,4.687,3.741a21.322,21.322,0,0,1-2.693-2c5.311,4.471,9.779,7.246,13.922,11.286,1.045.541,7.117,5.768,6.143,4.252,1.52,1.55.626,1.316,5.1,5.085a31.121,31.121,0,0,1,3.923,3.235c1.311,1.188,2.625,2.563,4.367,3.948-4.653-3.635-.1.063-4.2-3.07,1.423,1.389,3.29,2.986,5.461,4.811.538.461,1.109.921,1.666,1.425l1.683,1.59q1.8,1.714,3.535,3.494c.426.575.322.636.72,1.24,1.805,1.811,4.093,3.743,5.42,5.881l.039-.443c.7.94,1.488,1.96,2.318,3.026l1.273,1.629c.436.548.874,1.108,1.262,1.705.8,1.181,1.6,2.37,2.38,3.525.382.582.762,1.153,1.115,1.72q.473.888.922,1.721l1.775,2.357a29.494,29.494,0,0,1,1.719,2.409q.6,1.419,1.247,2.814l.686,1.449.355.731.306.761q.628,1.539,1.291,3.063c.44,1.024.929,2.03,1.268,3.079l1.135,3.056.567,1.474c.167.491.3.983.448,1.46l.851,2.743c.266.87.571,1.678.724,2.449.205,1.445.447,3.249.619,4.688a15.488,15.488,0,0,1,.077,1.809,2.2,2.2,0,0,1-.043.723l-.181-1.314c-.039-.264-.065-.552-.122-.851l-.2-.937a25.416,25.416,0,0,1,.247,3.294c.051,1.119.1,2.239.15,3.3a32.4,32.4,0,0,0,.185,5.236,12.288,12.288,0,0,1-.153,2.388,9.842,9.842,0,0,1-.255,1.233,14.356,14.356,0,0,0-.57,2.756,61.705,61.705,0,0,1-3.8,16.181l-.691,2c-.262.637-.517,1.258-.764,1.857q-.68,1.647-1.317,3.312c-.355,1.007-.75,1.848-1,2.554a6.816,6.816,0,0,0-.437,1.612l1.435-2.949,1.644-3.869.913-2.171.808-2.336c.268-.8.542-1.6.816-2.419.136-.408.271-.817.408-1.229.119-.414.216-.838.324-1.258-.345,1.809.268.489-.517,2.948q-.72,2.235-1.516,4.444c-.567,1.307-1.089,2.517-1.613,3.728l-.79,1.826c-.26.619-.591,1.221-.892,1.866q-1.021,2.113-1.972,4.259l-.245-1.034-.526.978-.562.951-1.088,1.9c-.72,1.258-1.361,2.538-2.067,3.763q-1.057,1.807-2.081,3.633c-.669,1.2-1.329,2.394-2.049,3.522a72.684,72.684,0,0,1-8.771,12.206" transform="translate(-108.298 -141.337)"/><path class="a" d="M500,865.943l.421,2.472.213,2.5.205-.563c-.153-.757-.237-1.534-.407-2.271q-.249-1.062-.432-2.137m.839,4.408c.181,1.005.38,1.97.574,2.87-.16-1.09-.331-2.132-.525-3.023l-.049.154ZM462,963.23q-1.849,2.011-3.655,4.062a40.678,40.678,0,0,0,3.656-4.062m-3.764,4.482,1.787-1.778.188-.326ZM360.5,1077.222l-3.737,7.17c-.91,1.115-5.063,9.267-3.959,6.5-1.909,4.427-6.975,13.576-4.623,10.4a301.592,301.592,0,0,1,20.143-35,366.439,366.439,0,0,1,26.052-34.475L391.7,1035.3q1.556-1.924,3.156-3.812l1.441-1.681c.477-.531.955-1.027,1.412-1.515,1.841-1.941,3.492-3.615,5.07-5.236.779-.822,1.575-1.594,2.376-2.373s1.59-1.581,2.4-2.419q1.262-1.309,2.477-2.663l1.3-1.473q.682-.746,1.406-1.541l-.745,1.448c2.45-2.149,4.6-4.408,6.826-6.657a69.293,69.293,0,0,1,7.3-6.512l-.645.271c1.345-1.207,1.945-1.608,3.289-2.856l-.6.418c3.331-3.419,5.548-5.349,9.043-8.514.357-.095-1.541,1.578-2.567,2.627,1.688-1.365,4.111-4.205,6.762-6.738,2.153-1.913.159.22-.083.541,1.926-1.97,3.6-3.661,5.126-5.16q2.1-2.034,4.131-4.133,1.836-1.87,3.592-3.815c1.16-1.3,2.258-2.7,3.432-4.265.4-.653-2.144,1.9.525-1.094q-1.84,1.852-3.614,3.767-1.678,1.783-3.352,3.568l-3.216,3.54-3.324,3.547,1.3-1.291c-3.172,4.263-2.917,2.719-8.785,8.8,1.377-1.789,4.055-4.292,4.952-5.468-3.7,3.174-6.151,5.641-8.3,7.834a54.536,54.536,0,0,1-6.713,5.908l.5-.5c-1.1.929-2.927,2.754-4.511,4.286.608-.408,2.262-1.824,3.4-2.746a18.856,18.856,0,0,0-2.662,3.18c-2.093,1.41-2.366,2.339-5.409,4.882-1.266.7,2.238-2.466,3.235-3.581-1.13,1.123-2.275,2.234-3.386,3.372a34.389,34.389,0,0,1-5.124,3.986c-2.557,2.7,1.711-1.333-.245.953q-.954.749-1.87,1.545c-.743.686-1.617,1.513-2.585,2.444l-3.151,3.064c-1.122,1.1-2.312,2.257-3.452,3.516l-3.5,3.781c-1.159,1.274-2.348,2.5-3.393,3.778q-2.823,3.319-5.586,6.687c2.122-2.5.493-1.1,3.154-4.063-1,1.034-4.259,4.994-4.046,5.222q-1.583,2.073-3.219,4.105c-1.123,1.417-2.34,2.819-3.451,4.289L378.4,1050.8c-1.1,1.363-2.163,2.662-3.087,3.891l1.243-1.3a94.593,94.593,0,0,1-5.55,7.839q-1.741,2.437-3.441,4.9l-1.81,2.679c-.6.92-1.17,1.893-1.755,2.874l.107-.158c-.758,1.262-1.337,2.509-2.1,4-.778,1.48-1.667,3.244-3.077,5.532.5-1.446,1.981-3.932,1.57-3.834" transform="translate(-107.068 -184.17)"/><path class="a" d="M338.016,1169.149l.974-2.831c-1.5,2.915-2.858,6.792-2.331,6.259.86-2.035,2.277-4.545,2.253-4.986a4.8,4.8,0,0,0-.9,1.558m-21.2,57.2c-.229,1.176-.015.892-.05,1.412,1.632-6.246,3.63-13.184,5.622-19.1.954-2.974,1.965-5.673,2.771-7.954.854-2.264,1.592-4.082,2.1-5.264a47.261,47.261,0,0,0,1.592-4.625,56.163,56.163,0,0,1,1.811-5.458l1.3-2.134c.884-2.838,5.014-10.893,3.146-8.22-.177.281-.822,2.456-1.935,4.722l-.026-.458-2.221,5.4.5-1.818a28.516,28.516,0,0,0-2.473,6.561,59.452,59.452,0,0,1-2.723,7.913l-.458-.24c-1.18,3.049-1.929,5.4-2.714,7.624-.8,2.225-1.5,4.379-2.554,7.068,0,0,.229.129.48-.965.361-1.018.993-2.283.906-1.531-2.673,9.515.155-1.567-2.132,4.952q-2.072,7.718-3.994,15.475c-1.339,5.486-2.471,10.53-3.148,12.766,1.137-3.8.178,2-.667,6.621-.563,2.084-.032-1.516-.043-2.3-.454,2.144-.9,3.882-1.161,6.046.357-1.378.574-1.587.6-.827s-.122,2.514-.339,4.981q1.2-7.677,2.5-15.337a155.1,155.1,0,0,1,3.311-15.311" transform="translate(-99.297 -247.554)"/><path class="a" d="M317.69,1246.1a12.758,12.758,0,0,0,.389-1.905q-.579,2.161-1.1,4.337Z" transform="translate(-100.612 -263.987)"/><path class="a" d="M-60.688,532.411c3.286,2.505-1.093-.407,1.937,2,3.543,2.267-3.584-3.247-.036-1.13,1.911,1.662,5.452,3.771,6.814,4.754-1.622-.915-1.03.111-.487.627.694.4,1.686,1.231,2.869,2.036s2.467,1.724,3.61,2.471c-5.442-3.879,4.81,2.9-.069-.652a19.51,19.51,0,0,1,3.4,1.812c1.672.992,3.49,2.241,4.563,2.918a3.687,3.687,0,0,1-1.3-.558l-2.14-1.368c-.677-.207.185.413,1.294,1.188.546.4,1.186.787,1.723,1.134a6.336,6.336,0,0,1,1.131.854c2.919,1.315,8.729,4.607,13.413,6.756,4.644,2.235,7.966,3.735,5.617,2.017-1.853-1.157-3.6-1.827-5.7-2.885,5.771,3.209-.174.429-.742.308-1.207-.718-2.93-1.55-4.182-2.228s-2.05-1.16-1.494-1.023l2.017.959,2.054.891c-1.588-.824-3.2-1.768-4.872-2.739l-5.182-2.981-2.69-1.551L-41.8,544.3l-5.436-3.515c-.91-.6-1.851-1.161-2.744-1.8s-1.778-1.286-2.668-1.931l-5.334-3.85c-.876-.651-1.792-1.243-2.623-1.935s-1.683-1.349-2.515-2.018l-4.912-3.932,5.506,4.495c-.789-.337-3.41-2.447-5.508-4.006l2.337,2.638c-1.567-1.328-3.15-2.5-2.881-2.549-2.1-1.4-1.311-.563-.268.54-1.046-.825-1.879-1.473-2.559-2.058l-1.731-1.568c-1.041-.935-1.993-1.74-3.647-2.979,1.568,1.572,2.719,2.656,3.674,3.505a27.611,27.611,0,0,0,2.541,2.067,86.2,86.2,0,0,1,7.237,5.865Z" transform="translate(-17.521 -111.134)"/><path class="a" d="M17.042,577.554c-3.3-1.671-5.673-2.806-8.137-4.036s-4.991-2.59-8.612-4.663c-3.8-1.576,1.352,1.511-.363.994,3.632,2.006,3.472,1.2,7.33,3.1,1.25,1.034,5.6,2.819,9.2,4.771-.383-.349-.313-.484.578-.163m22.037,12.73c2.989,1.57,6.127,2.914,8.414,4.3a18.481,18.481,0,0,1-4.024-1.857c.95,1.021,3.349,1.651,6.4,3.661-.255-.194-1.377-.888-.428-.49,7.925,4.389,4.691,2.039,14.836,8.029,1.552.712,2.98,1.6,2.893,1.18,2.782,1.87,3.443,2.372,4.255,2.956s1.8,1.2,5.084,3.506c-.161-.313-2.181-2.073-1.931-2.369,4.66,3.274,7.148,4.763,9.152,6.063s3.578,2.322,6.463,4.526c-.688-.442-1.539-.9-3.132-2.048a11.578,11.578,0,0,0,3.128,2.328c1.628,1,3.514,2.306,5.115,3.529l-.592.133,2.643,1.848,1.526,1.067c.518.374,1.026.787,1.55,1.193,2.086,1.637,4.235,3.39,5.939,4.99l-.97-.491c.472.358.957.712,1.427,1.09l1.392,1.181,2.813,2.428,2.829,2.477c.943.83,1.8,1.744,2.693,2.605l5.146,5.1q2.194,2.43,4.424,4.826c.882,1.155,1.82,2.261,2.654,3.452,3.591,4.245,1.908,2.059.019-.454-2-2.417-4.279-5.109-1.292-2.3.251,1.4,3.9,4.255,7.6,9.456,1.6,2.548-4.137-4.931-2.374-2.091,1.21.834,2.209,2.56,4.384,5.161-.776-.33,4.32,5.636,2.668,4.262l1.987,2.236,2.079,2.156,4.15,4.3a24.067,24.067,0,0,0,2.36,2.893q1.417,1.554,2.88,3.064c-4.362-4.742,1.643.884-3.1-4.545-.926-.932-1.838-2.022-2.837-3.154q-1.566-1.795-3.132-3.594l-1.662-1.922-1.628-2.053-3.357-4.253c-2.281-2.882-4.612-5.828-6.882-8.7-.578-.71-1.107-1.453-1.707-2.124l-1.766-2.006-3.363-3.858a7.247,7.247,0,0,1-1.484-1.294c-.639-.622-1.408-1.374-2.175-2.155a34.915,34.915,0,0,0-4.034-3.76c-.091-.345-.685-1.154-.787-1.509-6.383-5.589,1.284,1.542-.4.32-2.8-2.433-4.806-4.668-4.416-4.6-4.5-4.077-.6-.335-3.1-2.17l-2.678-2.977a246.041,246.041,0,0,0-26.06-18.219c-9.63-5.961-19.78-11.678-29.221-16.859l1.258,1.114c-8.513-4.8-14.851-6.835-22.163-11.526L25.766,583.3c1.513.563-1.239-1.286,1.148-.357-2.414-1.091-4.866-2.511-7.364-3.657l4.249,2.383a33.141,33.141,0,0,1-7.317-3.939c-6.647-3,3.542,2.585,4.83,3.6,9.444,4.04,8.871,5.319,17.744,9.576,5.506,2.623-.408-.619.022-.624" transform="translate(-33.483 -121.384)"/><path class="a" d="M31.717,585.649q-.678-.31-1.371-.586c.477.217.927.411,1.371.586M156.673,686.3l1.955,2.091c.734.641-.373-.443-1.955-2.091M19.895,579.834s0,0,.018.016l.069.028-.087-.045m-4.78-1.405,2.422,1.265-.342-.375ZM177.027,706.679l.153-.134c-.224-.116-.35-.14-.153.134m58.362,51.579-1.226-1.169c.367.391.807.8,1.226,1.169" transform="translate(-36.914 -123.499)"/><path class="a" d="M317.461,950.105l-1.966,3.542-2.159,3.651c-1.391,2.428-2.784,4.661-3.7,6.31l.036-.417c-1.363,2.342-6.291,9.676-2.672,5.263l.657-1.225a30.481,30.481,0,0,1,3.1-4.422,22.687,22.687,0,0,0,2.721-3.409,72.768,72.768,0,0,0,3.7-6.825c1-2.1,2.057-4.044,3.382-6.389,1.1-2.087,1.106-1.668.908-.982.653-1.188,1.189-2.205,1.611-3.133s.735-1.767,1.037-2.549.581-1.515.872-2.269l.955-2.377c.975-.371,2.67-4.2,4.229-8.93.2-.59.426-1.183.608-1.8s.368-1.241.555-1.868q.556-1.871,1.154-3.729c.337-1.239.676-2.446,1.034-3.576s.761-2.174,1.066-3.134a88.71,88.71,0,0,0,2.309-18.165c.267,3.461.237-6.085.584-4.671-.5-.917-.421-5.566-.951-10.117a32.033,32.033,0,0,0-.454-3.321q-.24-1.462-.53-2.916a12.083,12.083,0,0,0-.618-2.129,2.285,2.285,0,0,0-.57-1c-.846-4.294-1.022-4.343-1.1-4.589a9.851,9.851,0,0,1-.342-1.015l-.481-1.606c-.226-.719-.445-1.675-.9-2.853a2.585,2.585,0,0,1,.451.846c.189.474.36,1.04.476,1.355-.126-.486-.245-.946-.391-1.37q-.229-.6-.481-1.191c-.322-.753-.641-1.43-.945-2.092s-.589-1.314-.848-1.986-.56-1.375-.786-2.183c-1.673-3.695-1.884-3.971-1.965-3.852s0,.61-1.28-1.424q-1.06-2.017-2.077-4.057c-.493-.906-.8-1.464-1.024-1.938-.452-.942-.621-1.507-1.655-3.617a13.582,13.582,0,0,1-2.387-2.836,54.047,54.047,0,0,0-3.784-4.908c.681.773,3.841,5.539,1.533,2.586-5.838-7.8-5-5.977-11.085-12.739-1.357-1.89.216-.241,1.426,1.156,1.2,1.407,2.107,2.5-.331-.685,1.987,2.092,3.688,3.979,5.191,5.6,1.42,1.686,2.648,3.1,3.775,4.2-1.2-1.532-2.433-3.173-3.777-4.807l-4.273-4.888c-2.989-3.226-6.115-6.441-9.075-9.478-3.136-3.515,1.833,1.575-.634-1.18-1.366-1.6-2.674-2.926-3.894-4.126q-1.709-1.675-3.464-3.3c-1.1-1.032-2.17-2.024-3.24-3.072q-.818-.8-1.614-1.623-.861-.853-1.691-1.737l1.206.761c-1.6-1.292-4.225-3.911-7.166-6.874q-2.262-2.3-4.615-4.516-2.26-2.159-4.587-4.246c.622.8,1.022,1.318.208.688.638-.51-8.207-7.08-13.619-12.559.124.779-5.624-3.979-9.26-6.994-1.176-1.184-.778-1.107-.675-1.187,5.691,5.236,6,4.508,10.765,8.366-2-1.586-4.537-3.822-7.028-5.982-2.509-2.138-4.966-4.213-6.766-5.523l1.572.846c-5.328-4.639-5.27-3.349-10.658-8.407l.738.26c-5.673-4.795-11.768-10.1-17.474-15.28l-4.227-3.815-4-3.722c-1.292-1.209-2.591-2.334-3.777-3.473q-1.7-1.625-3.448-3.21c-.9-.575,2.953,4.073,3.051,4.424,2.643,2.394,4.8,4.2,6.785,5.876,2.006,1.654,3.9,3.113,5.984,4.86l-.35.275c1.1.626,6.149,4.761,3.577,2.217,3.494,2.727,2.279,2.492,6.287,5.622-.623.079-2.937-1.87-3.226-1.612l3.5,2.722c-1.185-.774,1.916,1.833.768,1.091,6.6,4.895,8.576,7.544,15.181,12.859l-3.527-3.117c.194-.171,2.233,1.591,3.823,2.864a65.384,65.384,0,0,0,5.789,5.579c2.938,2.31,4.807,3.341,8.613,6.686-1.116-.367,6.054,5.839,6.478,6.773,1.166.333,7.27,6.553,7.978,6.831,2.043,1.778,4.69,4.371,4.479,4.556-.291-.26-.892-.8-1.516-1.359.655.614,1.275,1.262,1.913,1.893-.221-.14-.181-.042-.412-.258,1.7,1.692,1.963,1.459,4.016,3.818a18.439,18.439,0,0,1-2.325-2.046c2.256,2.283,4.384,4.121,6.384,5.9a52.58,52.58,0,0,1,5.506,5.633c.9.6,6.068,5.913,5.33,4.414,1.266,1.558.419,1.3,4.15,5.217,2.427,1.993,3.98,4.546,6.975,7.383-4.039-3.708-.11.065-3.67-3.153,2.372,2.819,6.509,6.438,10.389,11.509.323.58.207.639.531,1.223.78.9,1.7,1.8,2.481,2.8a18.405,18.405,0,0,1,2.01,3.081l.086-.413c.579.918,1.274,1.886,1.932,2.948l2,3.322a58.627,58.627,0,0,1,3.525,6.769c.256.377.525.748.771,1.131l.7,1.168,1.415,2.347c.678,1.7,1.286,3.588,2,5.491.181.475.365.952.548,1.432s.376.959.525,1.452c.321.981.655,1.957.993,2.922.732,1.913,1.248,3.841,1.806,5.61.262.889.578,1.729.779,2.545l.6,2.284a40.5,40.5,0,0,1,.563,4.335,12.967,12.967,0,0,1,.073,2.343c-.11-.612-.3-1.657-.51-2.868l.256,3.051c.081,1.035.178,2.069.171,3.057a26.82,26.82,0,0,0,.416,4.836c.011,4.047-.4,2.956-.623,5.949q-.026,1.693-.142,3.382l-.14,1.886c-.081.641-.189,1.294-.289,1.958-.213,1.325-.427,2.69-.673,4.044-.313,1.341-.626,2.681-.928,3.976-.158.647-.286,1.287-.454,1.9l-.511,1.787q-.451,1.587-.858,3.186a16.721,16.721,0,0,0-.84,3.992l.99-2.87c.368-1.111.712-2.376,1.119-3.724l.611-2.092c.209-.716.351-1.469.531-2.225.326-1.518.728-3.073.978-4.658-.157,1.7.27.421-.2,2.763-.339,1.573-.623,2.961-.974,4.231l-1.1,3.595c-.177.583-.355,1.166-.534,1.761-.205.587-.412,1.186-.628,1.808q-.7,2.054-1.332,4.133l-.388-.94c-.5,1.278-1.093,2.509-1.583,3.756-.523,1.235-.94,2.493-1.475,3.687-1.041,2.4-1.894,4.81-2.944,7.053l-1.5,3.341c-.486,1.1-1.067,2.13-1.6,3.16q-.808,1.509-1.684,2.98c-.572.962-1.224,1.856-1.863,2.73" transform="translate(-76.085 -153.623)"/><path class="a" d="M336.511,912.147c.193,1.542.317,3.091.479,4.627l.2-.523q-.424-2.037-.679-4.1m.679,4.105c.178.929.428,1.813.543,2.656-.025-.254-.052-.505-.077-.753l-.132-.72q-.128-.666-.284-1.326Zm-27.5,89.852c-.61.823-1.826,2.424-2.939,4.115a45.98,45.98,0,0,0,2.939-4.115m-2.978,4.522,1.438-1.834.136-.323Zm-83.534,107.52-3.533,6.6c-.868,1.014-4.9,8.463-3.832,5.914-1.835,4.074-6.908,12.327-4.567,9.5,5.166-9.648,11.847-20.85,19.231-32.107s15.459-22.575,23.092-32.711l-2.288,3.372c7.685-10.743,11.777-13.667,17.937-22.363l-.534,1.427c4.152-4.369,7.15-9.117,11.863-13.384l-.583.3c1.126-1.238,1.628-1.673,2.758-2.94l-.521.434q1.789-2.261,3.7-4.425c1.155-1.35,2.339-2.667,3.816-4.274.331-.111-1.269,1.6-2.114,2.662,1.428-1.415,3.414-4.235,5.549-6.874,1.812-1.957.175.192,0,.524,6.306-8,9.543-11.382,13.174-17.665.282-.652-1.759,1.98.335-1.083l-2.943,3.831q-1.363,1.81-2.675,3.658l-5.272,7.2q.544-.652,1.065-1.322a14.916,14.916,0,0,1-2.738,3.76,56.217,56.217,0,0,0-4.466,5.21c1.108-1.767,3.255-4.393,3.978-5.551-6.2,6.542-7.96,10.148-12.5,14.082l.418-.51c-.933.949-2.411,2.832-3.74,4.377.524-.43,1.938-1.866,2.885-2.836a17.465,17.465,0,0,0-2.118,3.21c-1.824,1.468-1.946,2.385-4.548,4.981-1.124.74,1.838-2.477,2.637-3.61l-2.809,3.418a29.41,29.41,0,0,1-4.415,4.079c-2.113,2.715,1.474-1.364-.116.926q-.82.765-1.6,1.574c-.645.681-1.387,1.512-2.216,2.438-1.636,1.868-3.651,4.095-5.629,6.536s-4.067,4.971-5.908,7.4q-2.438,3.211-4.814,6.47c1.832-2.417.379-1.06,2.693-3.928-.882,1-3.671,4.839-3.464,5.04-1.728,2.521-3.828,5.271-5.848,8.019-2,2.758-4.087,5.4-5.775,7.693l1.145-1.215a81.7,81.7,0,0,1-5,7.352c-1,1.424-2.066,2.943-3.162,4.556s-2.219,3.319-3.285,5.148l.1-.146c-1.395,2.342-2.161,4.606-4.83,8.807.458-1.345,1.87-3.623,1.468-3.55" transform="translate(-78.173 -193.92)"/><path class="a" d="M199.5,1205.563l1-2.589c-1.513,2.632-2.911,6.171-2.389,5.711.895-1.84,2.309-4.106,2.3-4.521a4.191,4.191,0,0,0-.9,1.4m-23.9,51.244c-.331,1.06-.095.825-.175,1.3,4.305-11.164,10.284-24.685,12.622-28.853,1.823-3.588,1.665-4.488,3.795-9.1l1.351-1.883c.989-2.567,5.236-9.8,3.334-7.44-.185.246-.858,2.243-2.025,4.271l-.01-.429-2.367,4.862.551-1.659a26.042,26.042,0,0,0-2.686,5.91,46.219,46.219,0,0,1-3.056,7.123l-.438-.272c-1.31,2.73-2.209,4.824-3.107,6.819s-1.772,3.9-2.985,6.284c0,0,.218.147.538-.842.424-.9,1.131-2.01,1-1.319-3.289,8.545.28-1.431-2.451,4.354l-5.225,13.847c-1.834,4.9-3.5,9.387-4.41,11.349,1.534-3.341-.026,1.878-1.428,6-.807,1.832.15-1.4.232-2.127-.7,1.9-1.352,3.435-1.891,5.381,1.093-2.418.859-.637-.311,3.866,1.608-4.852,2.982-9.31,4.361-13.742,1.4-4.435,2.821-8.879,4.784-13.7" transform="translate(-68.849 -255.289)"/><path class="a" d="M176.871,1274.573a10.929,10.929,0,0,0,.554-1.716l-1.5,3.868Z" transform="translate(-70.849 -270.036)"/><path class="a" d="M-128.149,690.934c1.409.721,2.855,1.387,4.216,2.032s2.641,1.267,3.741,1.864a13.7,13.7,0,0,1-3.819-1.639,7.375,7.375,0,0,0,2.28,1.349,32.9,32.9,0,0,1,3.837,1.9c-.246-.174-1.327-.777-.418-.454,7.629,3.762,4.466,1.733,14.416,6.539,1.505.54,2.954,1.161,2.828.776,5.589,2.858,2.683,1.613,9.458,4.906-.191-.277-2.305-1.633-2.1-1.961,9.566,4.694,10.02,4.218,16.1,7.269-.71-.282-1.578-.549-3.248-1.322.594.847,5.287,2.146,8.7,3.768l-.523.271c1.615.657,3.817,1.553,6.122,2.488,2.285.978,4.646,2.069,6.57,3.124l-1-.2c4.142,1.639,8.482,3.74,12.7,5.715l6.061,3.064q1.46.734,2.84,1.423l2.614,1.39,3.423,2.234c9.289,4.779-8.976-5.188-1.976-2.068.579,1.321,4.906,2.3,9.78,5.774,2.217,1.751-5.226-3-2.77-1.039,1.341.312,2.766,1.548,5.525,3.089-.8-.037,5.594,3.571,3.685,2.911l4.927,2.656,4.96,2.588a56.319,56.319,0,0,0,6.284,3.956c-5.168-3.1,1.723.343-3.961-3.317-2.122-1.244-4.613-2.675-7.273-4.294l-8.441-5.2-4.44-2.7c-1.487-.9-2.948-1.841-4.457-2.655L-35.9,732.68c-1.433-.811-2.81-1.636-4.176-2.34-1.467-.1-7.007-3.647-8.994-4.066-.179-.284-.946-.822-1.136-1.111-7.206-3.318,1.547,1.081-.284.43-3.162-1.431-5.543-2.945-5.168-2.991-5.142-2.414-.631-.133-3.393-1.062l-3.12-2.094c-16.206-7.2-38.173-15.461-56.159-24.575l1.213,1.006c-2.035-1.047-3.961-1.882-5.752-2.749l-5.19-2.4a61.333,61.333,0,0,1-9.85-5.55c-.857-.353-1.727-.686-2.576-1.056,1.39.6-1.075-1.3,1.119-.33-2.2-1.132-4.384-2.645-6.647-3.858l3.806,2.5a29.478,29.478,0,0,1-6.574-4.145c-2.945-1.71-2.192-1.016-.563.256,1.665,1.213,4.25,2.927,4.813,3.46,2.158,1.074,3.706,2,5.01,2.749s2.3,1.414,3.287,2.085,1.954,1.351,3.194,2.123a40.749,40.749,0,0,0,4.86,2.588c5.2,2.4-.379-.595.034-.615m125.212,62.4,2.309,1.355c.828.382-.45-.3-2.309-1.355m22.794,14.32.125-.159c-.226-.068-.346-.066-.125.159m56.509,45.438-1.055-1.18c.312.394.691.8,1.055,1.18" transform="translate(-1.907 -144.357)"/><path class="a" d="M158.032,992.347c-1.635,4.464-4.008,10.332-5.248,13.638l-.038-.4c-.509,1.16-1.529,3.662-2.193,5.25s-.83,2.33.536.029c.139-.412.29-.817.418-1.236,2.294-5.6,2.233-3.8,4.252-8.086a62.475,62.475,0,0,0,2.409-6.861c.672-2.059,1.227-4.071,2.193-6.4.742-2.077.814-1.691.736-1.025a47.782,47.782,0,0,0,1.625-5.641c.339-1.534.54-2.9,1-4.568.955-.447,1.905-4.245,2.772-8.825l.628-3.544c.234-1.2.366-2.426.576-3.609.185-1.188.424-2.337.614-3.429q.251-1.528.637-3.03c.129-1.182.284-2.461.367-3.818.1-1.354.215-2.779.329-4.244.039-1.469.079-2.978.118-4.5.027-.76.008-1.523-.031-2.285l-.112-2.277c.2,1.607.2.183.2-1.479s-.15-3.56.119-2.91a11.582,11.582,0,0,1-.528-3.437c-.209-1.717-.377-3.866-.6-5.993-.309-2.114-.58-4.218-.933-5.831-.391-1.606-.764-2.736-1.094-2.938-.176-1.008-.3-1.774-.414-2.349l-.289-1.236a5.532,5.532,0,0,0-.208-.736,8.364,8.364,0,0,1-.279-.964l-.377-1.521c-.087-.342-.17-.74-.293-1.187l-.443-1.516a9.221,9.221,0,0,1,.8,2.091,29.058,29.058,0,0,0-1.49-4.432c-.254-.631-.468-1.254-.7-1.9a14.1,14.1,0,0,1-.589-2.092c-.652-1.781-1.024-2.741-1.244-3.24-.238-.492-.315-.529-.357-.477-.089.108-.069.581-1.107-1.415-.765-1.809-1.242-3.059-1.628-3.945s-.619-1.436-.785-1.9c-.332-.922-.433-1.468-1.2-3.531a10.048,10.048,0,0,1-2.008-2.836l-1.427-2.446q-.8-1.256-1.669-2.46c.235.418,1.06,1.764,1.526,2.671.45.918.608,1.357-.335-.121-4.714-7.81-4.212-5.962-9.114-12.949-1.955-3.9,4.822,7.019.97.562,1.641,2.154,3.035,4.082,4.269,5.741.633.821,1.162,1.613,1.68,2.325q.7.983,1.482,1.911l-1.474-2.383-.769-1.226-.836-1.211q-1.735-2.491-3.47-4.983c-1.19-1.681-2.392-3.376-3.585-5.057-1.225-1.657-2.526-3.235-3.756-4.793-2.582-3.576,1.572,1.633-.46-1.17-4.442-6.537-7.951-9.136-11.708-14.172l1.06.808c-1.325-1.387-3.659-3.957-6.25-6.883-1.307-1.453-2.635-3.035-4.041-4.5q-2.051-2.091-4.172-4.111c.552.774.9,1.274.157.667.305-.223-1.533-1.977-4.089-4.3-1.318-1.12-2.806-2.386-4.275-3.7-.734-.657-1.463-1.328-2.163-2l-2.022-1.964c.06.367-1.295-.518-3.087-1.841q-1.465-1.086-2.9-2.214c-.992-.784-1.977-1.574-2.87-2.221-1.15-1.052-.765-1.008-.667-1.094.694.578,1.306,1.073,1.856,1.5s1.014.817,1.438,1.156q1.066.83,2.206,1.559a52.385,52.385,0,0,1,4.824,3.294c-1.916-1.44-4.341-3.472-6.717-5.447-1.171-1.01-2.411-1.9-3.532-2.737s-2.167-1.566-3.044-2.129l1.527.694c-5.2-4.107-5.136-2.8-10.535-7.118l.718.17-2.148-1.527q-1.1-.746-2.223-1.5l-4.519-3.059c-3.036-2.058-6.172-4.016-9.2-5.981q-4.437-2.765-8.938-5.428c-2.87-1.667-5.584-3.191-8.056-4.487-.952-.3,3.591,3.051,3.75,3.352,2.906,1.617,5.229,2.838,7.375,3.978s4.142,2.148,6.347,3.419l-.294.333c1.131.36,6.39,3.476,3.659,1.47,3.62,2.039,2.47,1.968,6.559,4.4-.581.164-2.961-1.363-3.206-1.068l3.566,2.105c-1.19-.578,1.97,1.5.819.948,1.662.953,3.065,1.778,4.276,2.633q1.7,1.2,3.356,2.479c1.071.819,2.145,1.651,3.361,2.552s2.514,1.953,4.124,3.1l-3.434-2.742c.178-.184,2.159,1.372,3.712,2.473a24.209,24.209,0,0,0,2.217,2.093c.835.713,1.9,1.524,3.385,2.906,1.4,1.041,2.548,1.786,3.8,2.651q1.015.7,2,1.442c.36.273.742.563,1.14.888l1.231,1.1c-1.064-.318,5.62,5.5,5.988,6.39,1.071.344,6.576,6.351,7.246,6.617.464.432.965.907,1.444,1.391q.657.714,1.289,1.449c.767.9,1.288,1.587,1.186,1.665l-1.337-1.352,1.675,1.876c-.2-.139-.171-.044-.377-.257,1.5,1.668,1.772,1.451,3.55,3.769a16.061,16.061,0,0,1-2.07-2.024c4.033,4.421,7.4,7.481,10.257,11.588a32.52,32.52,0,0,1,2.8,3.07c1.079,1.277,2,2.285,1.757,1.531.981,1.608.224,1.278,3.318,5.284a19.537,19.537,0,0,1,2.7,3.468,43.976,43.976,0,0,0,2.883,4.212c-3.255-3.957-.117.051-2.993-3.386.9,1.471,2.185,3.177,3.666,5.141.735.986,1.516,2.036,2.338,3.14a42.68,42.68,0,0,1,2.414,3.568c.237.577.116.626.357,1.2.65.9,1.389,1.849,2.07,2.824a14.838,14.838,0,0,1,1.59,3.056l.134-.387q.752,1.469,1.539,2.919l1.581,3.27a55.39,55.39,0,0,1,2.746,6.6c.892,1.464,1.628,3,2.425,4.521.227.829.5,1.679.768,2.554.239.887.5,1.791.78,2.7s.574,1.83.88,2.748l.807,2.776c.286.915.566,1.821.843,2.7l.718,2.6c.469,1.673.959,3.2,1.27,4.53.184,1.25.4,2.81.548,4.056a10.942,10.942,0,0,1,.071,2.2c-.122-.571-.27-1.552-.533-2.677.249,1.827.331,3.879.518,5.716a24.7,24.7,0,0,0,.541,4.515,9.742,9.742,0,0,1-.014,3.162,10.991,10.991,0,0,0-.272,2.438,48.673,48.673,0,0,1,.042,6.8c-.05,1.257-.213,2.543-.327,3.828-.13,1.284-.241,2.567-.446,3.8-.357,2.467-.67,4.769-.978,6.592a14.054,14.054,0,0,0-.24,3.821c.292-1.542.714-3.78,1.2-6.369.38-2.608.857-5.57,1.034-8.573-.009,1.594.3.369.134,2.6-.655,5.994-1.475,9.005-2.564,14.931l-.5-.83q-.516,1.837-.96,3.692-.493,1.795-.923,3.606c-.14.6-.276,1.19-.414,1.778l-.449,1.745-.864,3.424c-.589,2.245-1.258,4.395-1.93,6.463a51.3,51.3,0,0,1-2.477,5.785" transform="translate(-42.949 -165.519)"/><path class="a" d="M199.667,954.42c.223,1.436.292,2.9.419,4.342l.211-.495c-.255-1.318-.45-2.666-.63-3.847m.63,3.847c.167.872.351,1.707.532,2.486-.144-.944-.3-1.849-.48-2.62Z" transform="translate(-75.858 -202.84)"/><path class="a" d="M146.542,1070.006c-.418.862-1.318,2.515-2.108,4.237a32.7,32.7,0,0,0,2.108-4.237m-2.075,4.625,1.078-1.9.075-.32ZM75.744,1182.146l-3.406,6.133c-.848.921-4.806,7.8-3.757,5.431-1.789,3.795-6.973,11.256-4.6,8.75,10.535-17.622,26.165-41.278,39.022-61.291l-1.909,3.311c3.244-5.266,5.737-8.691,8.024-11.888a88.451,88.451,0,0,0,6.8-10.535l-.3,1.416c1.683-2.278,3.064-4.608,4.513-6.953a63.924,63.924,0,0,1,4.847-6.964l-.51.346c.874-1.3,1.3-1.756,2.193-3.073l-.436.466c1.056-1.778,1.9-3.22,2.809-4.613q.69-1.067,1.407-2.116l1.568-2.35c.3-.144-.939,1.666-1.58,2.765,1.146-1.5,2.542-4.418,4.185-7.138,1.409-2.062.2.162.093.5,1.164-2.086,2.217-3.858,3.159-5.457l2.528-4.391c.788-1.348,1.447-2.671,2.109-4.025a42.846,42.846,0,0,0,1.854-4.369c.159-.649-1.365,2.073.136-1.06l-2.17,3.968q-1,1.869-1.95,3.767c-1.3,2.449-2.479,4.892-3.847,7.415l.809-1.368a13.656,13.656,0,0,1-2,3.871,51.026,51.026,0,0,0-3.426,5.437c.749-1.812,2.417-4.513,2.9-5.7-4.874,6.89-5.954,10.508-9.686,14.725l.323-.525c-.76.989-1.881,2.929-2.882,4.554.435-.462,1.531-2,2.3-3.008a14.438,14.438,0,0,0-1.5,3.282c-1.51,1.594-1.491,2.465-3.6,5.193-.97.813,1.393-2.534,1.98-3.691l-2.176,3.524a25.6,25.6,0,0,1-3.648,4.289c-1.632,2.783,1.217-1.432.027.9-1.324,1.539-4.448,5.89-7.8,10.725-3.292,4.875-6.8,10.241-8.981,13.746,1.556-2.378.268-1.029,2.249-3.853-.761.986-3.112,4.76-2.918,4.93-2.971,4.894-7.114,10.849-10.24,15.176l1.062-1.154c-2.079,3.992-6.431,9.321-10.5,16.129l.095-.137c-1.32,2.186-1.96,4.361-4.566,8.235.438-1.261,1.8-3.369,1.407-3.317M61.5,1206.111l1.041-2.389c-1.548,2.387-3,5.65-2.488,5.25a41.687,41.687,0,0,0,2.369-4.124,3.679,3.679,0,0,0-.922,1.262m-26.986,45.667c-.444.941-.187.76-.321,1.2,2.758-4.888,5.87-10.332,8.594-15.025,2.742-4.681,5.1-8.608,6.359-10.464,2.023-3.191,1.927-4.058,4.264-8.205l1.412-1.655c1.107-2.331,5.55-8.818,3.59-6.751-.193.217-.926,2.055-2.156,3.872l.009-.409-2.55,4.381.617-1.522c-3.86,5.752-1.855,4.546-6.391,11.724l-.412-.31c-2.9,4.876-4.229,7.419-7,11.59,0,0,.2.169.6-.721.493-.8,1.282-1.742,1.09-1.108-3.964,7.616.406-1.308-2.785,3.768-3.393,6.48-10.012,18.742-12.327,22.076,1.949-2.846-.264,1.76-2.269,5.33-1.063,1.551.357-1.281.546-1.939-.967,1.641-1.832,2.938-2.677,4.635,1.438-2.025.978-.419-.974,3.539,4.912-8.369,7.885-15.549,12.78-24" transform="translate(-38.311 -227.231)"/><path class="a" d="M36.278,1303.431a9.721,9.721,0,0,0,.738-1.523l-1.917,3.385Z" transform="translate(-41.131 -276.166)"/><path class="a" d="M-4,1032.319c-.208,1.115-.407,2.328-.66,3.559l-.759,3.714c-.465,2.456-.978,4.75-1.243,6.416l-.113-.368c-.461,2.375-2.382,10.03-.613,5.248l.172-1.232c1.191-5.647,1.426-3.956,2.651-8.3q.73-3.391,1.135-6.841a52.518,52.518,0,0,1,1.071-6.365c.347-2.077.492-1.718.533-1.077a44.319,44.319,0,0,0,.73-5.548c.073-1.5.1-2.809.311-4.452.417-.276.778-1.33,1.007-2.882s.4-3.585.576-5.8c.122-2.219.211-4.62.39-6.9a47.326,47.326,0,0,1,.622-6.241l.087-7.71c-.043-1.4-.089-2.837-.136-4.286s-.126-2.906-.3-4.34c.554,3.045-.274-5.42.229-4.19a12.524,12.524,0,0,1-.611-3.262Q.929,970.107.82,968.75c-.074-.972-.156-1.991-.292-3-.243-2.021-.48-4.027-.755-5.575-.329-1.541-.656-2.628-.978-2.83a27.662,27.662,0,0,0-.653-4.163c-.074-.221-.189-.584-1.048-5.016a10.256,10.256,0,0,1,.611,2.043c-.513-3.56-1.765-5.213-2.037-8.2a26.173,26.173,0,0,0-.945-3.168c-.187-.488-.252-.531-.3-.483-.1.1-.134.552-.932-1.44-1.045-3.6-1.519-4.866-1.725-5.779s-.252-1.441-.762-3.478a10.109,10.109,0,0,1-1.594-2.9c-.7-1.509-1.428-3.412-2.347-5.012.413.818,2.231,5.594.768,2.579-3.49-7.974-3.148-6.217-7-13.368-.764-1.925.284-.19,1.007,1.3.74,1.473,1.295,2.619-.122-.674,1.281,2.236,2.406,4.211,3.322,5.955a46.976,46.976,0,0,0,2.475,4.4A130.922,130.922,0,0,0-23.526,899.8c-2.137-3.629,1.361,1.681-.323-1.165a57.759,57.759,0,0,0-5.432-7.611c-.873-1.034-1.659-2.069-2.542-3.075q-1.37-1.6-2.618-3.3l1.012.776q-.574-.582-1.109-1.2l-1.4-1.55-1.611-1.842-.866-1.005-.939-1.008a86.478,86.478,0,0,0-8.1-7.961c.564.708.925,1.166.174.634.149-.125-.245-.57-1-1.247q-1.522-1.365-3.172-2.577c-1.323-.982-2.776-2.148-4.312-3.235-1.515-1.112-3-2.291-4.352-3.355.083.357-1.278-.367-3.1-1.449-1.87-1.011-4.159-2.452-6-3.458-1.207-.864-.836-.879-.753-.978a50.018,50.018,0,0,0,5.726,3.3,32.885,32.885,0,0,1,4.911,2.633c-3.811-2.514-10.138-6.624-13.807-8.194l1.557.409a29.785,29.785,0,0,0-5.431-2.482q-1.129-.388-2.217-.881-.742-.339-1.466-.716-.97-.467-1.921-.973l.712.021a202.375,202.375,0,0,0-19.235-7.811,141.254,141.254,0,0,0-18.09-5.031c-.949-.012,4.085,1.89,4.3,2.13l7.758,1.852c2.258.518,4.32,1.056,6.652,1.731l-.209.393c1.144.039,6.675,1.888,3.726.56,3.808,1.124,2.671,1.411,6.994,2.811-.525.287-3.052-.649-3.229-.308,1.244.417,2.509.8,3.744,1.245-1.216-.322,2.107,1.063.929.757a50.807,50.807,0,0,1,8.029,3.458c1.128.614,2.26,1.241,3.535,1.909s2.655,1.458,4.343,2.291l-3.637-2.062c.145-.21,2.243.955,3.872,1.753.821.632,1.47,1.145,2.35,1.71l1.508.966q1.045.645,2.043,1.359c1.446.813,2.643,1.346,3.913,2.041a42.586,42.586,0,0,1,4.476,2.83c-.525-.094.929,1.084,2.567,2.386a23.9,23.9,0,0,1,3.568,3.26c1.111.174,6.645,5.61,7.239,5.894,1.837,1.565,4.051,4.019,3.85,4.178-.252-.24-.768-.734-1.306-1.252l1.633,1.746c-.2-.126-.168-.036-.368-.233,1.46,1.549,1.755,1.311,3.389,3.568a15.931,15.931,0,0,1-1.946-1.942q1.323,1.523,2.717,2.982l1.307,1.348q.615.682,1.213,1.341,1.181,1.3,2.3,2.649a28.606,28.606,0,0,1,1.98,2.892,31.065,31.065,0,0,1,2.513,3.053c.967,1.264,1.8,2.267,1.617,1.534a25.861,25.861,0,0,0,2.754,5.273c1.862,2.118,2.572,4.726,4.612,7.783-2.765-4.03-.121.036-2.574-3.461.7,1.482,1.853,3.166,2.981,5.215.576,1.019,1.187,2.1,1.832,3.245s1.2,2.4,1.792,3.693c.154.576.028.61.184,1.187a23.735,23.735,0,0,1,2.77,6.011l.182-.357,1.131,2.945,1.162,3.266c.384,1.114.8,2.226,1.128,3.333q.455,1.6.839,3.21c.677,1.485,1.387,2.967,1.97,4.492,1.31,6.412,3.458,14.9,4.739,19.968a40.566,40.566,0,0,1,.516,5.974c-.085-.55-.294-1.478-.527-2.556.264,1.744.31,3.707.465,5.464a25.849,25.849,0,0,0,.617,4.3c.35,3.6-.185,2.665-.115,5.356.213,1.819.3,4.084.351,6.487-.013,2.4-.129,4.941-.21,7.321-.166,2.376-.311,4.591-.358,6.357a12.426,12.426,0,0,0,.129,3.651l.266-2.7c.11-1.04.171-2.21.268-3.465l.266-3.979c.039-1.386.068-2.818.081-4.251.1,1.516.327.331.312,2.461-.128,5.746-.7,8.671-1.049,14.408l-.6-.735c-.789,4.86-1.176,9.527-1.673,13.933q-.155,1.629-.406,3.246-.228,1.567-.5,3.127A37.09,37.09,0,0,1-4,1032.319" transform="translate(-8.54 -177.738)"/><path class="a" d="M30.243,992.6c.162,1.378.178,2.779.274,4.163l.224-.469c-.23-1.262-.368-2.558-.5-3.692m.5,3.692q.208,1.2.462,2.383c-.118-.9-.249-1.77-.406-2.511Z" transform="translate(-40.106 -210.896)"/><path class="a" d="M4.629,1105.414c-.26.877-.824,2.582-1.251,4.339a34.636,34.636,0,0,0,1.251-4.339m-1.142,4.7.679-1.969.011-.314Zm-51.627,109.942q-1.628,2.93-3.306,5.833c-.8.884-4.818,7.314-3.746,5.079-1.8,3.59-7.143,10.442-4.729,8.187,5.5-8.135,12-17.848,18.311-28.149,3.177-5.136,6.26-10.446,9.23-15.716,2.923-5.3,5.737-10.553,8.216-15.673l-1.452,3.356c2.528-5.352,4.486-8.893,6.244-12.221.863-1.671,1.679-3.285,2.481-5.046s1.531-3.691,2.3-5.956l-.035,1.392c2.446-4.847,3.546-9.768,6.3-14.733l-.428.413c.6-1.371.891-1.887,1.472-3.288l-.321.517q.826-2.441,1.785-4.834c.569-1.483,1.181-2.941,1.953-4.734.263-.185-.585,1.73-.974,2.878.808-1.608,1.583-4.6,2.592-7.456.959-2.184.232.118.192.452,2.872-8.639,4.652-12.43,5.724-18.836.028-.639-.925,2.182-.075-1.022-.929,2.856-1.791,5.427-2.492,7.982l-2.222,7.656.488-1.437a11.542,11.542,0,0,1-1.142,4,42.321,42.321,0,0,0-2.2,5.722c.376-1.83,1.378-4.69,1.631-5.884-1.637,3.684-2.572,6.4-3.4,8.8a33.444,33.444,0,0,1-2.959,6.771l.2-.555c-.508,1.073-1.194,3.1-1.851,4.8.327-.513,1.1-2.138,1.625-3.229a13.772,13.772,0,0,0-.789,3.353c-1.157,1.754-.892,2.605-2.406,5.528-.78.931.849-2.624,1.15-3.831q-.662,1.863-1.376,3.707a23.143,23.143,0,0,1-2.687,4.657c-1.073,2.882.922-1.542.194.844-.5.832-1.314,2.4-2.3,4.388l-3.412,6.913c-2.493,5.031-5.21,10.512-6.963,14.045,1.255-2.406.148-1.01,1.733-3.893-.607,1.022-2.466,4.834-2.266,4.981a156.373,156.373,0,0,1-8.734,15.144l.962-1.15a59.634,59.634,0,0,1-4.024,6.866c-1.714,2.605-3.642,5.558-5.562,8.823l.091-.131c-1.239,2.1-1.845,4.184-4.364,7.871.416-1.213,1.733-3.218,1.342-3.177" transform="translate(-20.95 -234.702)"/></g></svg>